<svg width="64" height="64" viewBox="0 0 64 64" fill="none" xmlns="http://www.w3.org/2000/svg">
<path d="M57.7521 45.1681C57.1184 43.5419 55.5845 42.4916 53.8397 42.4916H45.1147V40.8276L51.8442 34.0982H55.7555C56.2245 35.9038 57.8539 37.2457 59.8033 37.2457C62.1178 37.2457 64 35.3635 64 33.049C64 30.7345 62.1178 28.8523 59.8033 28.8523C57.8539 28.8523 56.2245 30.1942 55.7555 31.9998H51.4098C51.1318 31.9998 50.8643 32.11 50.6681 32.3072L45.1147 37.8605V34.5325L57.3975 22.2498C57.5948 22.0536 57.7049 21.7871 57.7049 21.508V8.76887C59.5095 8.29989 60.8525 6.67156 60.8525 4.72114C60.8525 2.40664 58.9702 0.524414 56.6557 0.524414C54.3412 0.524414 52.459 2.40664 52.459 4.72114C52.459 6.67156 53.802 8.29989 55.6066 8.76887V21.0737L54.5574 22.1228L51.4098 18.9753V14.1638H49.3115V19.4097C49.3115 19.6887 49.4216 19.9552 49.6189 20.1514L53.0738 23.6064L47.2131 29.4671L45.1147 27.3687V23.6064H43.0164V27.8031C43.0164 28.0822 43.1266 28.3487 43.3238 28.5449L45.7296 30.9506L43.3238 33.3564C43.1266 33.5526 43.0164 33.8191 43.0164 34.0982V42.4916H38.8197V25.0899L44.8073 19.1022C45.0046 18.9061 45.1147 18.6396 45.1147 18.3605V11.9164C46.9193 11.4474 48.2623 9.8191 48.2623 7.86868C48.2623 5.55418 46.3801 3.67195 44.0656 3.67195C41.7511 3.67195 39.8689 5.55418 39.8689 7.86868C39.8689 9.8191 41.2118 11.4474 43.0164 11.9164V17.9261L37.0287 23.9138C36.8315 24.11 36.7213 24.3765 36.7213 24.6556V42.4916H32.5246V8.76887C34.3292 8.29989 35.6721 6.67156 35.6721 4.72114C35.6721 2.40664 33.7899 0.524414 31.4754 0.524414C29.1609 0.524414 27.2787 2.40664 27.2787 4.72114C27.2787 6.67156 28.6216 8.29989 30.4262 8.76887V30.5163L27.2787 27.3687V19.4097H25.1803V27.8031C25.1803 28.0822 25.2905 28.3487 25.4877 28.5449L30.4262 33.4834V42.4916H26.2295V37.2457C26.2295 36.9666 26.1193 36.7001 25.9221 36.504L16.1721 26.7539L21.7254 21.2006C21.9226 21.0044 22.0328 20.7379 22.0328 20.4588V12.9656C23.8374 12.4966 25.1803 10.8683 25.1803 8.91786C25.1803 6.60336 23.2981 4.72114 20.9836 4.72114C18.6691 4.72114 16.7869 6.60336 16.7869 8.91786C16.7869 10.8683 18.1298 12.4966 19.9344 12.9656V20.0245L14.6885 25.2704L12.5902 23.172V19.2607C14.3948 18.7917 15.7377 17.1634 15.7377 15.2129C15.7377 12.8984 13.8555 11.0162 11.541 11.0162C9.22649 11.0162 7.34426 12.8984 7.34426 15.2129C7.34426 17.1634 8.68721 18.7917 10.4918 19.2607V23.6064C10.4918 23.8855 10.602 24.152 10.7992 24.3482L24.1311 37.6801V42.4916H19.9344V39.3441C19.9344 39.065 19.8243 38.7985 19.627 38.6023L5.2459 24.2212V8.76887C7.05049 8.29989 8.39344 6.67156 8.39344 4.72114C8.39344 2.40664 6.51121 0.524414 4.19672 0.524414C1.88223 0.524414 0 2.40664 0 4.72114C0 6.67156 1.34295 8.29989 3.14754 8.76887V24.6556C3.14754 24.9346 3.2577 25.2011 3.45495 25.3973L9.00826 30.9506H8.39344C8.11541 30.9506 7.84787 31.0608 7.65167 31.2581L6.31502 32.5947C5.69075 32.2254 4.97311 31.9998 4.19672 31.9998C1.88223 31.9998 0 33.882 0 36.1965C0 38.511 1.88223 40.3933 4.19672 40.3933C6.51121 40.3933 8.39344 38.511 8.39344 36.1965C8.39344 35.4202 8.16787 34.7025 7.79856 34.0782L8.8278 33.049H11.1066L17.8361 39.7784V42.4916H9.11108C7.36629 42.4916 5.83239 43.5419 5.19974 45.1681L0.303213 57.7582C-0.199344 59.0487 -0.0314754 60.504 0.751213 61.6476C1.5339 62.7922 2.82859 63.4752 4.21561 63.4752H58.7363C60.1222 63.4752 61.418 62.7922 62.2007 61.6476C62.9833 60.504 63.1502 59.0487 62.6487 57.7582L57.7521 45.1681ZM59.8033 30.9506C60.9605 30.9506 61.9016 31.8918 61.9016 33.049C61.9016 34.2062 60.9605 35.1474 59.8033 35.1474C58.646 35.1474 57.7049 34.2062 57.7049 33.049C57.7049 31.8918 58.646 30.9506 59.8033 30.9506ZM54.5574 4.72114C54.5574 3.56389 55.4985 2.62277 56.6557 2.62277C57.813 2.62277 58.7541 3.56389 58.7541 4.72114C58.7541 5.87838 57.813 6.8195 56.6557 6.8195C55.4985 6.8195 54.5574 5.87838 54.5574 4.72114ZM41.9672 7.86868C41.9672 6.71143 42.9083 5.77032 44.0656 5.77032C45.2228 5.77032 46.1639 6.71143 46.1639 7.86868C46.1639 9.02592 45.2228 9.96704 44.0656 9.96704C42.9083 9.96704 41.9672 9.02592 41.9672 7.86868ZM18.8852 8.91786C18.8852 7.76061 19.8264 6.8195 20.9836 6.8195C22.1409 6.8195 23.082 7.76061 23.082 8.91786C23.082 10.0751 22.1409 11.0162 20.9836 11.0162C19.8264 11.0162 18.8852 10.0751 18.8852 8.91786ZM9.44262 15.2129C9.44262 14.0557 10.3837 13.1146 11.541 13.1146C12.6982 13.1146 13.6393 14.0557 13.6393 15.2129C13.6393 16.3702 12.6982 17.3113 11.541 17.3113C10.3837 17.3113 9.44262 16.3702 9.44262 15.2129ZM2.09836 4.72114C2.09836 3.56389 3.03948 2.62277 4.19672 2.62277C5.35397 2.62277 6.29508 3.56389 6.29508 4.72114C6.29508 5.87838 5.35397 6.8195 4.19672 6.8195C3.03948 6.8195 2.09836 5.87838 2.09836 4.72114ZM4.19672 38.2949C3.03948 38.2949 2.09836 37.3538 2.09836 36.1965C2.09836 35.0393 3.03948 34.0982 4.19672 34.0982C5.35397 34.0982 6.29508 35.0393 6.29508 36.1965C6.29508 37.3538 5.35397 38.2949 4.19672 38.2949ZM38.8197 44.59H43.0164V46.6883H38.8197V44.59ZM36.7213 44.59V46.6883H32.5246V44.59H36.7213ZM29.377 4.72114C29.377 3.56389 30.3182 2.62277 31.4754 2.62277C32.6327 2.62277 33.5738 3.56389 33.5738 4.72114C33.5738 5.87838 32.6327 6.8195 31.4754 6.8195C30.3182 6.8195 29.377 5.87838 29.377 4.72114ZM26.2295 44.59H30.4262V46.6883H26.2295V44.59ZM19.9344 44.59H24.1311V46.6883H19.9344V44.59ZM19.9344 52.9834V48.7867H24.1311V52.9834H26.2295V48.7867H30.4262V52.9834H32.5246V48.7867H36.7213V52.9834H38.8197V48.7867H43.0164V52.9834H45.1147V48.7867H49.6042L52.0519 56.131H10.8978L13.3456 48.7867H17.8361V52.9834H19.9344ZM60.4685 60.463C60.0708 61.0443 59.4392 61.3769 58.7352 61.3769H4.21561C3.51266 61.3769 2.88105 61.0443 2.48341 60.463C2.08577 59.8818 2.00393 59.1736 2.25889 58.5179L7.15541 45.9277C7.47226 45.1156 8.23921 44.59 9.11108 44.59H17.8361V46.6883H12.5902C12.138 46.6883 11.7382 46.9769 11.5945 47.406L8.44695 56.8486C8.33993 57.1686 8.39449 57.5211 8.59174 57.7939C8.78898 58.0667 9.10584 58.2293 9.44262 58.2293H53.5082C53.845 58.2293 54.1618 58.0678 54.3591 57.7939C54.5563 57.5201 54.6098 57.1676 54.5039 56.8486L51.3563 47.406C51.2126 46.9769 50.8129 46.6883 50.3607 46.6883H45.1147V44.59H53.8397C54.7116 44.59 55.4786 45.1156 55.7954 45.9277L60.6919 58.5179C60.9469 59.1736 60.8661 59.8818 60.4685 60.463Z" fill="#162454"/>
</svg>
