<svg width="59" height="67" viewBox="0 0 59 67" fill="none" xmlns="http://www.w3.org/2000/svg">
<path d="M56.6797 15.3063L31.1641 0.995361C30.1656 0.440674 28.9453 0.440674 27.9469 0.995361L2.43125 15.3063C1.32187 15.861 0.65625 16.9704 0.65625 18.1907V48.9204C0.65625 50.1407 1.32188 51.25 2.32031 51.8047L27.8359 66.1157C28.8344 66.6704 30.0547 66.6704 31.0531 66.1157L56.5688 51.8047C57.5672 51.25 58.2328 50.1407 58.2328 48.9204V18.1907C58.3438 16.9704 57.6781 15.861 56.6797 15.3063ZM46.1406 11.8672L48.8031 13.3094L46.1406 15.0844V11.8672ZM37.2656 6.98599L42.3687 9.87036L37.2656 12.5329V6.98599ZM35.0469 13.7532L31.7188 15.5282L30.6094 14.9735C29.9438 14.6407 29.0562 14.6407 28.3906 15.0844L20.5141 19.9657C19.8484 20.4094 19.5156 21.075 19.5156 21.8516V25.5125L13.9688 22.4063V17.4141L21.8453 12.5329L22.9547 13.0875C23.6203 13.4204 24.3969 13.4204 25.0625 13.0875L35.0469 7.65161V13.7532ZM21.7344 21.9625L29.6109 17.0813L30.7203 17.636C31.3859 17.9688 32.1625 17.9688 32.8281 17.636L43.9219 11.4235V16.4157L38.2641 19.9657L37.1547 19.411C36.4891 19.0782 35.6016 19.0782 34.9359 19.5219L27.0594 24.4032C26.3937 24.8469 26.0609 25.5125 26.0609 26.2891V29.1735L21.6234 26.7329V21.9625H21.7344ZM30.0547 30.8375C29.7219 31.0594 29.2781 31.0594 28.9453 30.8375L28.3906 30.5047V26.4L36.2672 21.5188L37.3766 22.0735C38.0422 22.4063 38.9297 22.4063 39.5953 21.9625L50.6891 14.8625V19.3L30.0547 30.8375ZM52.7969 15.6391L55.0156 16.8594L52.7969 18.0797V15.6391ZM28.9453 2.8813C29.2781 2.65942 29.7219 2.65942 30.0547 2.8813L34.4922 5.43286L23.9531 11.2016L22.8438 10.6469C22.1781 10.3141 21.2906 10.3141 20.625 10.7579L12.7484 15.6391C12.0828 16.0829 11.75 16.7485 11.75 17.525V21.186L3.98438 16.8594L28.9453 2.8813ZM3.42969 49.8079C3.09687 49.586 2.875 49.2532 2.875 48.8094V25.2907L6.64687 27.1766C6.97969 27.3985 7.3125 27.7313 7.3125 28.175V29.1735C5.5375 29.8391 4.65 31.725 5.31562 33.3891C5.98125 35.1641 7.86719 36.0516 9.53125 35.386C11.1953 34.7204 12.1938 32.8344 11.5281 31.1704C11.1953 30.1719 10.4187 29.5063 9.53125 29.1735V28.175C9.53125 26.9547 8.86563 25.7344 7.64531 25.1797L2.875 22.85V18.7454L27.8359 32.7235C27.9469 32.8344 28.1688 32.8344 28.3906 32.9454V44.9266L18.9609 39.8235C18.6281 39.6016 18.4062 39.2688 18.4062 38.825V36.6063C20.1812 35.9407 21.0687 34.0547 20.4031 32.3907C19.7375 30.7266 17.8516 29.7282 16.1875 30.3938C14.4125 31.0594 13.525 32.9454 14.1906 34.6094C14.5234 35.6079 15.3 36.2735 16.1875 36.6063V38.825C16.1875 40.0454 16.8531 41.1547 17.9625 41.7094L28.3906 47.3672V58.1282L18.9609 53.025C18.6281 52.8032 18.4062 52.4704 18.4062 52.0266V47.9219C18.4062 46.7016 17.7406 45.7032 16.7422 45.0375L12.8594 42.8188C12.8594 42.7079 12.8594 42.486 12.8594 42.375C12.8594 40.4891 11.4172 39.0469 9.53125 39.0469C7.64531 39.0469 6.20312 40.4891 6.20312 42.375C6.20312 44.261 7.64531 45.7032 9.53125 45.7032C10.4187 45.7032 11.1953 45.3704 11.8609 44.8157L15.7438 47.1454C16.0766 47.3672 16.2984 47.7 16.2984 48.1438V52.2485C16.2984 53.4688 16.9641 54.5782 18.0734 55.1329L28.5016 60.7907V63.786L3.42969 49.8079ZM9.53125 32.3907C9.53125 33.0563 9.0875 33.5 8.42188 33.5C7.75625 33.5 7.3125 33.0563 7.3125 32.3907C7.3125 31.725 7.75625 31.2813 8.42188 31.2813C9.0875 31.2813 9.53125 31.725 9.53125 32.3907ZM16.1875 33.5C16.1875 32.8344 16.6313 32.3907 17.2969 32.3907C17.9625 32.3907 18.4062 32.8344 18.4062 33.5C18.4062 34.1657 17.9625 34.6094 17.2969 34.6094C16.6313 34.6094 16.1875 34.1657 16.1875 33.5ZM10.6406 42.375C10.6406 43.0407 10.1969 43.4844 9.53125 43.4844C8.86563 43.4844 8.42188 43.0407 8.42188 42.375C8.42188 41.7094 8.86563 41.2657 9.53125 41.2657C10.1969 41.2657 10.6406 41.7094 10.6406 42.375ZM55.5703 49.8079L30.6094 63.786V54.1344L41.0375 48.4766C42.1469 47.9219 42.8125 46.8125 42.8125 45.5922V41.5985C42.8125 41.1547 43.0344 40.8219 43.4781 40.6L48.3594 38.1594C49.6906 39.3797 51.7984 39.3797 53.0187 38.0485C54.2391 36.7172 54.2391 34.6094 52.9078 33.3891C51.5766 32.1688 49.4688 32.1688 48.2484 33.5C47.5828 34.0547 47.25 34.8313 47.25 35.7188V36.1625L42.3687 38.6032C41.2594 39.1579 40.4828 40.2672 40.4828 41.5985V45.5922C40.4828 46.036 40.2609 46.3688 39.9281 46.5907L30.6094 51.5829V40.8219L33.8266 39.1579C35.1578 40.3782 37.2656 40.3782 38.4859 39.0469C39.7062 37.7157 39.7062 35.6079 38.375 34.3875C37.0438 33.1672 34.9359 33.1672 33.7156 34.4985C33.1609 35.1641 32.8281 35.9407 32.8281 36.8282V37.2719L30.6094 38.3813V32.9454C30.8312 32.9454 30.9422 32.8344 31.1641 32.7235L56.125 18.7454V40.6L50.6891 43.3735C49.3578 42.1532 47.25 42.1532 46.0297 43.4844C44.8094 44.8157 44.8094 46.9235 46.1406 48.1438C47.4719 49.3641 49.5797 49.3641 50.8 48.0329C51.3547 47.3672 51.6875 46.5907 51.6875 45.7032C51.6875 45.5922 51.6875 45.4813 51.6875 45.2594L56.125 43.0407V48.8094C56.125 49.2532 55.9031 49.586 55.5703 49.8079ZM49.4688 35.7188C49.4688 35.0532 49.9125 34.6094 50.5781 34.6094C51.2438 34.6094 51.6875 35.0532 51.6875 35.7188C51.6875 36.3844 51.2438 36.8282 50.5781 36.8282C49.9125 36.8282 49.4688 36.3844 49.4688 35.7188ZM35.0469 36.8282C35.0469 36.1625 35.4906 35.7188 36.1562 35.7188C36.8219 35.7188 37.2656 36.1625 37.2656 36.8282C37.2656 37.4938 36.8219 37.9375 36.1562 37.9375C35.4906 37.9375 35.0469 37.4938 35.0469 36.8282ZM49.4688 45.7032C49.4688 46.3688 49.025 46.8125 48.3594 46.8125C47.6937 46.8125 47.25 46.3688 47.25 45.7032C47.25 45.0375 47.6937 44.5938 48.3594 44.5938C49.025 44.5938 49.4688 45.0375 49.4688 45.7032Z" fill="#162454"/>
</svg>
