<svg width="64" height="64" viewBox="0 0 64 64" fill="none" xmlns="http://www.w3.org/2000/svg">
<g clip-path="url(#clip0)">
<path d="M60.454 6.50699C60.2304 6.12142 59.8184 5.88421 59.3729 5.88421H53.3499L50.3304 0.632029C50.1074 0.244215 49.6943 0.00512695 49.247 0.00512695H42.4943C42.0477 0.00512695 41.635 0.24334 41.4118 0.630154L38.6366 5.43778L36.455 4.29158C36.4802 4.11611 36.4939 3.93689 36.4939 3.75454C36.4939 1.68711 34.812 0.00512695 32.7445 0.00512695C30.6771 0.00512695 28.9951 1.68711 28.9951 3.75454C28.9951 5.82197 30.6771 7.50396 32.7445 7.50396C33.7268 7.50396 34.6216 7.12376 35.2908 6.50349L38.2203 8.04262L41.4153 13.5088C41.6394 13.8922 42.0502 14.1279 42.4943 14.1279H48.5111L51.1555 18.8234L48.6403 22.6111C48.3523 22.5401 48.0518 22.5016 47.7422 22.5016C45.6748 22.5016 43.9928 24.1836 43.9928 26.251C43.9928 28.3185 45.6748 30.0004 47.7422 30.0004C48.3111 30.0004 48.8605 29.8742 49.3591 29.6354L51.8567 32.133C51.618 32.6315 51.4916 33.1809 51.4916 33.7499C51.4916 35.8173 53.1736 37.4993 55.241 37.4993C57.3084 37.4993 58.9904 35.8173 58.9904 33.7499C58.9904 31.6824 57.3084 30.0004 55.241 30.0004C54.6721 30.0004 54.1227 30.1267 53.6241 30.3655L51.1265 27.8679C51.3653 27.3694 51.4916 26.8199 51.4916 26.251C51.4916 25.4007 51.2066 24.6159 50.7277 23.9861L53.2905 20.127H59.3729C59.8217 20.127 60.2361 19.8863 60.4586 19.4965L63.8356 13.5761C64.0561 13.1894 64.0544 12.7148 63.8311 12.3298L60.454 6.50699ZM32.7445 5.00435C32.0554 5.00435 31.4947 4.44368 31.4947 3.75454C31.4947 3.0654 32.0554 2.50474 32.7445 2.50474C33.4337 2.50474 33.9943 3.0654 33.9943 3.75454C33.9943 4.44368 33.4337 5.00435 32.7445 5.00435ZM40.5638 7.09889L43.2158 2.50474H48.5238L51.178 7.12151L48.5316 11.6283H43.2114L40.5638 7.09889ZM46.4924 26.251C46.4924 25.5619 47.053 25.0012 47.7422 25.0012C48.4313 25.0012 48.992 25.5619 48.992 26.251C48.992 26.941 48.4322 27.5008 47.7422 27.5008C47.053 27.5008 46.4924 26.9402 46.4924 26.251ZM56.4908 33.7499C56.4908 34.439 55.9302 34.9997 55.241 34.9997C54.5519 34.9997 53.9912 34.439 53.9912 33.7499C53.9912 33.0598 54.551 32.5 55.241 32.5C55.9302 32.5 56.4908 33.0607 56.4908 33.7499ZM58.6469 17.6274H53.3507L50.686 12.8957L53.3356 8.37882H58.6529L61.3081 12.962L58.6469 17.6274Z" fill="#162454"/>
<path d="M24.1215 25.751C23.7109 25.751 23.3266 25.9526 23.0931 26.2904C22.275 27.4747 20.3721 30.4019 20.3721 32C20.3721 34.0674 22.0541 35.7494 24.1215 35.7494C26.1889 35.7494 27.8709 34.0674 27.8709 32C27.8709 30.4019 25.9679 27.4747 25.1498 26.2904C24.9164 25.9526 24.532 25.751 24.1215 25.751ZM24.1215 33.2498C23.4323 33.2498 22.8717 32.6891 22.8717 32.0015C22.8818 31.6193 23.4017 30.5301 24.1217 29.317C24.8411 30.5287 25.3607 31.6176 25.3713 32.0011C25.3708 32.6898 24.8104 33.2498 24.1215 33.2498Z" fill="#162454"/>
<path d="M24.1209 63.995C24.8111 63.995 25.3707 63.4354 25.3707 62.7452C25.3707 62.0549 24.8111 61.4954 24.1209 61.4954C23.4307 61.4954 22.8711 62.0549 22.8711 62.7452C22.8711 63.4354 23.4307 63.995 24.1209 63.995Z" fill="#162454"/>
<path d="M33.2448 29.1924V18.2522H34.4946C35.1849 18.2522 35.7444 17.6926 35.7444 17.0024V12.0032C35.7444 11.3131 35.1849 10.7534 34.4946 10.7534H13.7479C13.0576 10.7534 12.498 11.3131 12.498 12.0032V17.0024C12.498 17.6926 13.0576 18.2522 13.7479 18.2522H14.9977V29.1924L0.593532 56.6324C0.205218 57.3553 0 58.1724 0 58.9959C0 61.7524 2.24265 63.9951 4.99922 63.9951H18.4971C19.1874 63.9951 19.7469 63.4354 19.7469 62.7453C19.7469 62.0552 19.1874 61.4955 18.4971 61.4955H4.99922C3.62093 61.4955 2.49961 60.3742 2.49961 58.9959C2.49961 58.5767 2.59972 58.1783 2.79731 57.8117C2.79956 57.8077 10.4422 43.2483 10.4422 43.2483H37.8001C37.8001 43.2483 45.4428 57.8077 45.445 57.8117C45.6426 58.1783 45.7427 58.5766 45.7427 58.9959C45.7427 60.3742 44.6214 61.4955 43.2431 61.4955H29.7454C29.0551 61.4955 28.4955 62.0552 28.4955 62.7453C28.4955 63.4354 29.0551 63.9951 29.7454 63.9951H43.2432C45.9998 63.9951 48.2425 61.7524 48.2425 58.9959C48.2425 58.1724 48.0372 57.3553 47.6489 56.6324L33.2448 29.1924ZM14.9977 13.253H33.2448V15.7526H14.9977V13.253ZM11.7544 40.7487L17.354 30.0813C17.448 29.9021 17.4973 29.7028 17.4973 29.5005V18.2522H30.7452V29.5005C30.7452 29.7028 30.7943 29.9022 30.8884 30.0813L36.488 40.7487H11.7544Z" fill="#162454"/>
</g>
<defs>
<clipPath id="clip0">
<rect width="64" height="64" fill="white"/>
</clipPath>
</defs>
</svg>
