<svg width="120" height="120" viewBox="0 0 120 120" fill="none" xmlns="http://www.w3.org/2000/svg">
<g clip-path="url(#clip0)">
<path d="M93.9767 45.0422C93.9182 44.8994 93.8458 44.7639 93.7607 44.6366C93.6746 44.5075 93.5785 44.3885 93.4705 44.2805C93.3606 44.1725 93.2407 44.0745 93.1125 43.9903C92.9852 43.906 92.8497 43.8328 92.7087 43.7742C92.5677 43.7156 92.4203 43.6689 92.2702 43.6405C91.9681 43.5801 91.6568 43.5801 91.3547 43.6405C91.2036 43.6689 91.0562 43.7156 90.9161 43.7742C90.7751 43.8328 90.6387 43.906 90.5106 43.9903C90.3842 44.0745 90.2625 44.1725 90.1544 44.2805C90.0464 44.3885 89.9484 44.5075 89.8633 44.6366C89.7791 44.7639 89.7067 44.8994 89.6481 45.0422C89.5895 45.1832 89.5447 45.3306 89.5145 45.4807C89.4843 45.6309 89.4678 45.7856 89.4678 45.9376C89.4678 46.5537 89.7186 47.1589 90.1544 47.5947C90.2625 47.7027 90.3842 47.8007 90.5106 47.8849C90.6396 47.9691 90.7751 48.0424 90.9161 48.101C91.0571 48.1596 91.2045 48.2063 91.3547 48.2365C91.5067 48.2667 91.6595 48.2813 91.8115 48.2813C91.9662 48.2813 92.1182 48.2667 92.2711 48.2365C92.4213 48.2063 92.5687 48.1596 92.7087 48.101C92.8497 48.0424 92.9861 47.9691 93.1125 47.8849C93.2416 47.8007 93.3606 47.7027 93.4705 47.5947C93.9062 47.1589 94.1553 46.5537 94.1553 45.9376C94.1553 45.7856 94.1406 45.63 94.1104 45.4807C94.0802 45.3306 94.0353 45.1832 93.9767 45.0422Z" fill="#0EE9C4"/>
<path d="M88.0882 0H36.6146C30.7654 0 26.0074 4.7589 26.0074 10.6082V21.2008L17.6019 30.6564C17.5864 30.6738 17.5717 30.6912 17.5571 30.7095C17.4728 30.8047 17.3904 30.9008 17.3108 30.9988C17.2687 31.051 17.2284 31.1041 17.1872 31.1572C17.1368 31.2213 17.0856 31.2853 17.0361 31.3513C16.9867 31.4181 16.9391 31.4868 16.8915 31.5545C16.8549 31.6058 16.8173 31.658 16.7816 31.7101C16.7267 31.7907 16.6745 31.8722 16.6223 31.9537C16.5967 31.994 16.571 32.0333 16.5463 32.0736C16.4877 32.1679 16.431 32.2631 16.376 32.3592C16.3605 32.3867 16.3449 32.4133 16.3293 32.4398C16.268 32.5488 16.2094 32.6586 16.1517 32.7694C16.1453 32.7831 16.138 32.796 16.1316 32.8097C16.0684 32.9324 16.0089 33.056 15.9512 33.1805C15.9503 33.1814 15.9494 33.1832 15.9485 33.1851C15.3296 34.5263 15 35.9939 15 37.4972V108.713C15 114.937 20.0638 120 26.2875 120H82.4001C88.4902 120 93.466 115.15 93.6766 109.111C99.4316 109.001 104.08 104.288 104.08 98.5078V15.9924C104.08 7.17406 96.9057 0 88.0882 0V0ZM34.411 18.8021V30.9191C34.411 31.5865 33.8681 32.1295 33.1997 32.1295H22.5632L34.411 18.8021ZM99.3922 98.5078C99.3922 101.7 96.8526 104.31 93.6876 104.424V55.3124C93.6876 54.0178 92.6375 52.9686 91.3438 52.9686C90.0493 52.9686 89.0001 54.0178 89.0001 55.3124V108.712C89.0001 112.351 86.0393 115.312 82.4001 115.312H26.2875C22.6483 115.312 19.6875 112.351 19.6875 108.712V37.4972C19.6875 37.2683 19.7067 37.0422 19.7342 36.8169H33.1997C36.4526 36.8169 39.0985 34.1711 39.0985 30.9191V15.119C39.4986 15.0293 39.9096 14.9817 40.3262 14.9817H82.4001C86.0393 14.9817 89.0001 17.9425 89.0001 21.5817V36.5624C89.0001 37.857 90.0493 38.9062 91.3438 38.9062C92.6375 38.9062 93.6876 37.857 93.6876 36.5624V21.5817C93.6876 15.3579 88.6238 10.2942 82.4001 10.2942H40.3262C38.7121 10.2942 37.1392 10.6769 35.7248 11.3827C35.7174 11.3864 35.7101 11.3891 35.7028 11.3928C35.6945 11.3965 35.6863 11.401 35.6781 11.4056C35.5947 11.4477 35.5124 11.4926 35.43 11.5375C35.3595 11.5759 35.289 11.6134 35.2185 11.6528C35.1471 11.694 35.0766 11.737 35.0051 11.7801C34.9246 11.8277 34.8449 11.8771 34.7671 11.9266C34.7058 11.9659 34.6453 12.0071 34.584 12.0474C34.497 12.106 34.4119 12.1646 34.3267 12.2259C34.2736 12.2635 34.2205 12.3019 34.1684 12.3413C34.0786 12.4081 33.9898 12.4777 33.901 12.5473C33.8543 12.5848 33.8076 12.6224 33.761 12.6608C33.6703 12.7359 33.5815 12.8128 33.4927 12.8915C33.4506 12.9291 33.4076 12.9657 33.3664 13.0041C33.2739 13.0884 33.1842 13.1762 33.0944 13.2641C33.0597 13.2989 33.023 13.3328 32.9882 13.3676C32.8665 13.4912 32.7475 13.6175 32.6321 13.7475C32.6312 13.7484 32.6303 13.7494 32.6303 13.7503L30.6939 15.9274V10.6082C30.6939 7.34343 33.3499 4.68749 36.6146 4.68749H88.0873C94.3211 4.68749 99.3922 9.75859 99.3922 15.9924V98.5078Z" fill="#0EE9C4"/>
<path fill-rule="evenodd" clip-rule="evenodd" d="M54.4072 48.1399C54.4072 48.0188 54.2585 47.9581 54.1716 48.0438L34.0072 67.9043C33.9533 67.9574 33.9533 68.0435 34.0072 68.0966L54.1716 87.9572C54.2585 88.0428 54.4072 87.9822 54.4072 87.861V80.5546C54.4072 80.5186 54.3927 80.484 54.3668 80.4585L44.7146 70.9517C44.6277 70.866 44.6892 70.7196 44.8122 70.7196H54.2404C54.3167 70.7196 54.3785 70.6587 54.3785 70.5836V65.4172C54.3785 65.3421 54.3167 65.2813 54.2404 65.2813H44.8123C44.6893 65.2813 44.6277 65.1348 44.7147 65.0492L54.3668 55.5425C54.3927 55.517 54.4072 55.4824 54.4072 55.4463V48.1399Z" fill="#0EE9C4"/>
<path fill-rule="evenodd" clip-rule="evenodd" d="M75.1618 65.2808C75.2851 65.2808 75.3465 65.1337 75.2589 65.0483L57.827 48.0396C57.7398 47.9546 57.5918 48.0154 57.5918 48.1362V87.8638C57.5918 87.9846 57.7398 88.0454 57.827 87.9604L75.259 70.9517C75.3466 70.8662 75.2851 70.7191 75.1618 70.7191H67.7393C67.7029 70.7191 67.668 70.7333 67.6422 70.7585L63.3529 74.9436C63.2657 75.0287 63.1177 74.9678 63.1177 74.847V61.153C63.1177 61.0322 63.2657 60.9714 63.3529 61.0564L67.6421 65.2414C67.668 65.2667 67.7029 65.2808 67.7393 65.2808H75.1618Z" fill="#0EE9C4"/>
</g>
<defs>
<clipPath id="clip0">
<rect width="120" height="120" fill="white"/>
</clipPath>
</defs>
</svg>
