<svg width="63" height="60" viewBox="0 0 63 60" fill="none" xmlns="http://www.w3.org/2000/svg">
<path fill-rule="evenodd" clip-rule="evenodd" d="M31.6523 0.20923C31.6523 0.0275405 31.4293 -0.06345 31.2989 0.0650236L1.05234 29.8559C0.971484 29.9355 0.971484 30.0646 1.05235 30.1443L31.2989 59.9351C31.4293 60.0636 31.6523 59.9726 31.6523 59.7909V48.8313C31.6523 48.7772 31.6305 48.7253 31.5917 48.6871L17.1134 34.4269C16.983 34.2985 17.0754 34.0788 17.2598 34.0788H31.4022C31.5165 34.0788 31.6092 33.9875 31.6092 33.8749V26.1252C31.6092 26.0126 31.5165 25.9213 31.4022 25.9213H17.2599C17.0755 25.9213 16.9831 25.7016 17.1135 25.5731L31.5917 11.3131C31.6305 11.2748 31.6523 11.223 31.6523 11.1689V0.20923Z" fill="#0EE9C4"/>
<path fill-rule="evenodd" clip-rule="evenodd" d="M62.7842 25.9212C62.9691 25.9212 63.0613 25.7006 62.9299 25.5724L36.782 0.0594635C36.6513 -0.0680794 36.4292 0.0231201 36.4292 0.204347V59.7957C36.4292 59.9769 36.6513 60.0681 36.782 59.9405L62.93 34.4275C63.0614 34.2993 62.9692 34.0787 62.7843 34.0787H51.6505C51.5959 34.0787 51.5435 34.0999 51.5047 34.1378L45.0708 40.4154C44.9401 40.543 44.7181 40.4518 44.7181 40.2705V19.7295C44.7181 19.5482 44.9401 19.457 45.0708 19.5846L51.5047 25.8622C51.5434 25.9 51.5958 25.9212 51.6504 25.9212H62.7842Z" fill="#0EE9C4"/>
</svg>
