<svg width="220" height="220" viewBox="0 0 220 220" fill="none" xmlns="http://www.w3.org/2000/svg">
<g clip-path="url(#clip0)">
<path d="M75.625 92.8125C77.9967 92.8125 79.9219 90.8873 79.9219 88.5156C79.9219 86.1742 78.0185 84.2188 75.625 84.2188C73.2533 84.2188 71.3281 86.144 71.3281 88.5156C71.3281 90.9058 73.2785 92.8125 75.625 92.8125Z" fill="#0EE9C4"/>
<path d="M7.44097 84.9153C18.8697 72.6558 60.0424 32.6562 110 32.6562C159.958 32.6562 201.131 72.6558 212.561 84.9153C214.179 86.6508 216.899 86.7448 218.634 85.1268C220.37 83.5087 220.465 80.7896 218.847 79.0541C190.995 49.1824 151.059 24.0625 110 24.0625C68.9568 24.0625 29.0193 49.1673 1.15511 79.0541C-0.464608 80.7896 -0.368935 83.5087 1.3666 85.1268C3.10213 86.7465 5.82125 86.6508 7.44097 84.9153Z" fill="#0EE9C4"/>
<path d="M187.066 85.3064C165.654 66.244 138.654 49.8438 110 49.8438C81.3364 49.8438 54.3349 66.2524 32.9328 85.3064C13.4844 102.62 1.30039 119.688 0.791817 120.405C-0.263939 121.894 -0.263939 123.888 0.791817 125.376C1.30039 126.095 13.4844 143.161 32.9328 160.475C54.3466 179.539 81.3448 195.938 110 195.938C138.663 195.938 165.663 179.529 187.066 160.475C206.515 143.161 218.699 126.095 219.207 125.376C220.263 123.888 220.263 121.894 219.207 120.405C218.699 119.688 206.515 102.62 187.066 85.3064ZM181.219 154.176C164.192 169.307 138.015 187.344 110 187.344C81.9843 187.344 55.8069 169.307 38.7806 154.176C24.2618 141.273 13.7294 128.211 9.65748 122.891C13.7311 117.568 24.2635 104.508 38.7806 91.6057C55.8069 76.4743 81.9843 58.4375 110 58.4375C138.015 58.4375 164.192 76.4743 181.219 91.6057C195.736 104.508 206.268 117.568 210.342 122.891C206.268 128.213 195.736 141.273 181.219 154.176Z" fill="#0EE9C4"/>
<path d="M110 71.3281C102.578 71.3281 96.2282 72.6927 88.7658 75.8902C86.5838 76.8251 85.5733 79.3512 86.5082 81.5332C87.4431 83.7135 89.9692 84.7256 92.1496 83.7891C98.4774 81.0783 103.815 79.9219 110 79.9219C133.693 79.9219 152.969 99.1974 152.969 122.891C152.969 127.381 152.276 131.711 150.992 135.781H130.746C128.972 130.779 124.195 127.188 118.594 127.188C111.486 127.188 105.703 132.97 105.703 140.078C105.703 147.186 111.486 152.969 118.594 152.969C124.195 152.969 128.972 149.372 130.746 144.37H147.2C139.759 157.204 125.872 165.859 110 165.859C91.0216 165.859 74.5408 153.486 69.0052 135.781H84.2188C85.2695 135.781 86.2833 135.397 87.0688 134.699L105.967 117.944C107.236 118.364 108.592 118.594 110 118.594C117.108 118.594 122.891 112.811 122.891 105.703C122.891 98.5948 117.108 92.8125 110 92.8125C102.892 92.8125 97.1094 98.5948 97.1094 105.703C97.1094 108.221 97.8379 110.569 99.09 112.556L82.5873 127.188H67.2344C66.4556 119.764 67.6423 112.639 70.8985 105.042C71.8334 102.86 70.823 100.334 68.6426 99.3988C66.4606 98.4639 63.9345 99.476 62.9996 101.656C58.5953 111.932 57.3835 121.946 59.2902 132.26C59.2919 132.267 59.2936 132.273 59.2936 132.28C59.302 132.319 59.3087 132.359 59.3171 132.399C63.8607 156.776 85.152 174.453 110 174.453C138.892 174.453 161.563 151.092 161.563 122.891C161.563 94.4591 138.432 71.3281 110 71.3281ZM118.594 144.375C116.224 144.375 114.297 142.448 114.297 140.078C114.297 137.708 116.224 135.781 118.594 135.781C120.964 135.781 122.891 137.708 122.891 140.078C122.891 142.448 120.964 144.375 118.594 144.375ZM110 101.406C112.37 101.406 114.297 103.333 114.297 105.703C114.297 108.073 112.37 110 110 110C107.63 110 105.703 108.073 105.703 105.703C105.703 103.333 107.632 101.406 110 101.406Z" fill="#0EE9C4"/>
</g>
<defs>
<clipPath id="clip0">
<rect width="220" height="220" fill="white"/>
</clipPath>
</defs>
</svg>
