<svg width="269" height="260" viewBox="0 0 269 260" fill="none" xmlns="http://www.w3.org/2000/svg">
<path fill-rule="evenodd" clip-rule="evenodd" d="M132.863 0.904546C132.863 0.117226 131.896 -0.277066 131.331 0.279653L0.262796 129.373C-0.0876012 129.718 -0.0875973 130.278 0.2628 130.623L131.331 259.717C131.896 260.274 132.863 259.879 132.863 259.092V211.6C132.863 211.366 132.768 211.141 132.6 210.975L69.8608 149.181C69.2955 148.625 69.6959 147.673 70.4952 147.673H131.779C132.274 147.673 132.676 147.277 132.676 146.789V113.207C132.676 112.719 132.274 112.323 131.779 112.323H70.4956C69.6963 112.323 69.296 111.372 69.8612 110.815L132.6 49.0212C132.768 48.8555 132.863 48.6307 132.863 48.3963V0.904546Z" fill="#0EE9C4"/>
<path fill-rule="evenodd" clip-rule="evenodd" d="M267.766 112.325C268.568 112.325 268.967 111.369 268.398 110.814L155.09 0.257675C154.524 -0.295011 153.562 0.100187 153.562 0.885504V259.115C153.562 259.9 154.524 260.295 155.09 259.742L268.398 149.186C268.968 148.63 268.568 147.674 267.767 147.674H219.52C219.284 147.674 219.057 147.766 218.889 147.93L191.009 175.134C190.442 175.686 189.48 175.291 189.48 174.506V85.4943C189.48 84.709 190.442 84.3138 191.009 84.8665L218.889 112.069C219.057 112.233 219.284 112.325 219.52 112.325H267.766Z" fill="#0EE9C4"/>
</svg>
