<svg width="361" height="45" viewBox="0 0 361 45" fill="none" xmlns="http://www.w3.org/2000/svg">
<path d="M7.06055 44H0.46875L16.6699 0.904297H23.2031L7.06055 44Z" fill="#0EE9C4"/>
<path d="M43.8867 22.1738C43.8867 16.0605 45.5566 10.8945 48.8965 6.67578C52.2559 2.4375 56.7383 0.318359 62.3438 0.318359C68.5156 0.318359 73.2324 2.23242 76.4941 6.06055C79.7559 9.88867 81.3867 15.2598 81.3867 22.1738C81.3867 29.0879 79.6777 34.5762 76.2598 38.6387C72.8613 42.7012 68.0273 44.7324 61.7578 44.7324C55.9961 44.7324 51.5723 42.7207 48.4863 38.6973C45.4199 34.6738 43.8867 29.166 43.8867 22.1738ZM51.7969 22.1738C51.7969 27.1934 52.6465 31.0801 54.3457 33.834C56.0449 36.5879 58.5156 37.9648 61.7578 37.9648C65.5664 37.9648 68.4668 36.6172 70.459 33.9219C72.4707 31.2266 73.4766 27.3105 73.4766 22.1738C73.4766 12.1152 69.7656 7.08594 62.3438 7.08594C58.9453 7.08594 56.3379 8.45313 54.5215 11.1875C52.7051 13.9023 51.7969 17.5645 51.7969 22.1738ZM107.9 44.0293V41.3926C106.865 42.2715 105.439 43.0234 103.623 43.6484C101.807 44.2734 100.137 44.5859 98.6133 44.5859C91.3281 44.5859 87.6855 40.7188 87.6855 32.9844V12.623H95.0098V32.4277C95.0098 36.4512 96.8164 38.4629 100.43 38.4629C102.09 38.4629 103.633 38.0332 105.059 37.1738C106.484 36.3145 107.432 35.3184 107.9 34.1855V12.623H115.225V44.0293H107.9ZM141.27 19.4492C139.961 18.5898 138.525 18.1602 136.963 18.1602C135.264 18.1602 133.75 18.9316 132.422 20.4746C131.113 22.0176 130.459 23.9023 130.459 26.1289V44H123.135V12.623H130.459V15.4941C132.51 13.1895 135.234 12.0371 138.633 12.0371C141.133 12.0371 143.047 12.418 144.375 13.1797L141.27 19.4492ZM207.363 44.0293H199.98L195.527 20.8848L186.885 44.5859H184.16L175.518 20.8848L170.889 44.0293H163.535L172.178 1.08008H176.221L185.508 29.9961L194.59 1.08008H198.604L207.363 44.0293ZM217.354 0.464844C218.525 0.464844 219.521 0.884766 220.342 1.72461C221.182 2.54492 221.602 3.54102 221.602 4.71289C221.602 5.88477 221.182 6.89062 220.342 7.73047C219.521 8.55078 218.525 8.96094 217.354 8.96094C216.182 8.96094 215.176 8.55078 214.336 7.73047C213.516 6.89062 213.105 5.88477 213.105 4.71289C213.105 3.54102 213.516 2.54492 214.336 1.72461C215.176 0.884766 216.182 0.464844 217.354 0.464844ZM213.574 44V18.6289H209.561V12.623H220.986V44H213.574ZM227.607 41.9785L230.215 36.1484C232.402 37.8867 234.873 38.7559 237.627 38.7559C240.479 38.7559 241.904 37.7402 241.904 35.709C241.904 34.5176 241.475 33.541 240.615 32.7793C239.756 32.0176 238.086 31.1191 235.605 30.084C230.195 27.8379 227.49 24.6934 227.49 20.6504C227.49 17.9355 228.525 15.8262 230.596 14.3223C232.666 12.7988 235.312 12.0371 238.535 12.0371C241.797 12.0371 244.863 12.7695 247.734 14.2344L245.625 19.918C244.023 18.5508 241.797 17.8672 238.945 17.8672C236.387 17.8672 235.107 18.8828 235.107 20.9141C235.107 21.7148 235.527 22.4375 236.367 23.082C237.207 23.7266 239.004 24.5957 241.758 25.6895C244.512 26.7637 246.494 28.0723 247.705 29.6152C248.916 31.1582 249.521 33.0234 249.521 35.2109C249.521 38.1211 248.438 40.416 246.27 42.0957C244.121 43.7559 241.191 44.5859 237.48 44.5859C235.391 44.5859 233.711 44.4102 232.441 44.0586C231.191 43.7266 229.58 43.0332 227.607 41.9785ZM253.447 41.9785L256.055 36.1484C258.242 37.8867 260.713 38.7559 263.467 38.7559C266.318 38.7559 267.744 37.7402 267.744 35.709C267.744 34.5176 267.314 33.541 266.455 32.7793C265.596 32.0176 263.926 31.1191 261.445 30.084C256.035 27.8379 253.33 24.6934 253.33 20.6504C253.33 17.9355 254.365 15.8262 256.436 14.3223C258.506 12.7988 261.152 12.0371 264.375 12.0371C267.637 12.0371 270.703 12.7695 273.574 14.2344L271.465 19.918C269.863 18.5508 267.637 17.8672 264.785 17.8672C262.227 17.8672 260.947 18.8828 260.947 20.9141C260.947 21.7148 261.367 22.4375 262.207 23.082C263.047 23.7266 264.844 24.5957 267.598 25.6895C270.352 26.7637 272.334 28.0723 273.545 29.6152C274.756 31.1582 275.361 33.0234 275.361 35.2109C275.361 38.1211 274.277 40.416 272.109 42.0957C269.961 43.7559 267.031 44.5859 263.32 44.5859C261.23 44.5859 259.551 44.4102 258.281 44.0586C257.031 43.7266 255.42 43.0332 253.447 41.9785ZM286.963 0.464844C288.135 0.464844 289.131 0.884766 289.951 1.72461C290.791 2.54492 291.211 3.54102 291.211 4.71289C291.211 5.88477 290.791 6.89062 289.951 7.73047C289.131 8.55078 288.135 8.96094 286.963 8.96094C285.791 8.96094 284.785 8.55078 283.945 7.73047C283.125 6.89062 282.715 5.88477 282.715 4.71289C282.715 3.54102 283.125 2.54492 283.945 1.72461C284.785 0.884766 285.791 0.464844 286.963 0.464844ZM283.184 44V18.6289H279.17V12.623H290.596V44H283.184ZM297.1 28.2383C297.1 23.4531 298.477 19.5566 301.23 16.5488C304.004 13.541 307.656 12.0371 312.188 12.0371C316.953 12.0371 320.654 13.4824 323.291 16.373C325.928 19.2637 327.246 23.2188 327.246 28.2383C327.246 33.2383 325.898 37.2129 323.203 40.1621C320.527 43.1113 316.855 44.5859 312.188 44.5859C307.422 44.5859 303.711 43.1016 301.055 40.1328C298.418 37.1445 297.1 33.1797 297.1 28.2383ZM304.717 28.2383C304.717 35.1523 307.207 38.6094 312.188 38.6094C314.473 38.6094 316.279 37.7109 317.607 35.9141C318.955 34.1172 319.629 31.5586 319.629 28.2383C319.629 21.4219 317.148 18.0137 312.188 18.0137C309.902 18.0137 308.086 18.9121 306.738 20.709C305.391 22.5059 304.717 25.0156 304.717 28.2383ZM353.32 44V25.8652C353.32 23.1895 352.803 21.2363 351.768 20.0059C350.752 18.7754 349.082 18.1602 346.758 18.1602C345.684 18.1602 344.531 18.4629 343.301 19.0684C342.09 19.6738 341.143 20.4258 340.459 21.3242V44H333.135V12.623H338.408L339.756 15.5527C341.748 13.209 344.688 12.0371 348.574 12.0371C352.305 12.0371 355.244 13.1602 357.393 15.4062C359.561 17.6328 360.645 20.748 360.645 24.752V44H353.32Z" fill="#162454"/>
</svg>
