<svg width="320" height="320" viewBox="0 0 320 320" fill="none" xmlns="http://www.w3.org/2000/svg">
<g opacity="0.3" clip-path="url(#clip0)">
<path d="M299.697 26.0924C300.588 26.1113 301.324 25.4031 301.347 24.5111L301.717 7.38356C301.729 6.4808 301.03 5.75005 300.133 5.73344C299.247 5.71683 298.512 6.4203 298.483 7.31238L298.123 24.4363C298.112 24.8741 298.272 25.2726 298.544 25.5657C298.826 25.8836 299.242 26.0805 299.697 26.0924Z" fill="#0EE9C4"/>
<path d="M295.272 30.078L295.637 12.9399C295.655 12.0466 294.951 11.3076 294.059 11.2957C293.168 11.2731 292.432 11.9825 292.409 12.8711L292.044 30.0057C292.032 30.441 292.187 30.8337 292.464 31.1326C292.752 31.4458 293.161 31.6499 293.621 31.6605C294.513 31.6783 295.25 30.9689 295.272 30.078Z" fill="#0EE9C4"/>
<path d="M289.187 35.6453L289.558 18.513C289.58 17.6186 288.871 16.8795 287.98 16.857C287.089 16.8404 286.346 17.5486 286.33 18.4347L285.96 35.567C285.948 36.0012 286.109 36.3938 286.38 36.6939C286.667 37.0119 287.083 37.2112 287.537 37.2171C288.429 37.2444 289.171 36.5362 289.187 35.6453Z" fill="#0EE9C4"/>
<path d="M283.114 41.2055L283.484 24.0733C283.508 23.1788 282.799 22.448 281.913 22.4231C281.016 22.4065 280.273 23.1147 280.257 24.0068L279.891 41.1391C279.879 41.5768 280.041 41.9671 280.311 42.266C280.604 42.584 281.003 42.7785 281.469 42.7892C282.358 42.8058 283.093 42.0976 283.114 41.2055Z" fill="#0EE9C4"/>
<path d="M277.041 46.7703L277.407 29.6416C277.429 28.7472 276.726 28.0105 275.84 27.9915C274.943 27.9749 274.207 28.6784 274.19 29.5693L273.819 46.7015C273.814 47.1392 273.969 47.5295 274.239 47.8285C274.528 48.1476 274.938 48.3469 275.397 48.3516C276.277 48.367 277.019 47.6588 277.041 46.7703Z" fill="#0EE9C4"/>
<path d="M270.955 52.3373L271.326 35.2051C271.343 34.3083 270.646 33.5716 269.749 33.555C268.851 33.5384 268.12 34.2418 268.097 35.1363L267.732 52.2638C267.72 52.7015 267.876 53.0918 268.152 53.3872C268.44 53.7039 268.85 53.908 269.304 53.9186C270.208 53.9341 270.94 53.2259 270.955 52.3373Z" fill="#0EE9C4"/>
<path d="M264.883 57.9047L265.253 40.7725C265.264 39.8756 264.566 39.139 263.669 39.1223C262.778 39.0998 262.042 39.8139 262.019 40.6977L261.649 57.83C261.637 58.2677 261.793 58.658 262.069 58.9534C262.356 59.2689 262.767 59.4682 263.221 59.4742C264.124 59.5014 264.856 58.7932 264.883 57.9047Z" fill="#0EE9C4"/>
<path d="M81.5273 294.735L81.1584 311.869C81.1524 312.312 81.3138 312.7 81.5842 312.999C81.8666 313.314 82.2818 313.514 82.742 313.524C83.6353 313.541 84.3672 312.837 84.3922 311.946L84.7611 294.817C84.7777 293.92 84.0695 293.184 83.1774 293.166C82.2818 293.145 81.5463 293.843 81.5273 294.735Z" fill="#0EE9C4"/>
<path d="M87.5999 289.177L87.231 306.306C87.2203 306.737 87.3828 307.136 87.6545 307.429C87.9451 307.746 88.3461 307.949 88.8063 307.955C89.7032 307.971 90.4458 307.263 90.4624 306.383L90.8313 289.248C90.8479 288.351 90.1397 287.615 89.25 287.598C88.3579 287.581 87.6224 288.285 87.5999 289.177Z" fill="#0EE9C4"/>
<path d="M96.5462 300.813L96.9092 283.679C96.9317 282.782 96.2223 282.051 95.3314 282.028C94.437 282.011 93.6979 282.72 93.6813 283.606L93.3136 300.747C93.3088 301.167 93.4678 301.571 93.7394 301.859C94.0277 302.181 94.437 302.38 94.8961 302.391C95.7798 302.413 96.5213 301.705 96.5462 300.813Z" fill="#0EE9C4"/>
<path d="M102.618 295.244L102.981 278.124C103.004 277.228 102.289 276.486 101.406 276.47C100.515 276.446 99.7722 277.155 99.7615 278.047L99.3878 295.176C99.3831 295.608 99.5456 296.006 99.8172 296.294C100.102 296.61 100.509 296.814 100.969 296.825C101.865 296.849 102.601 296.142 102.618 295.244Z" fill="#0EE9C4"/>
<path d="M108.694 289.685L109.064 272.55C109.081 271.664 108.373 270.911 107.487 270.9C106.592 270.877 105.853 271.586 105.831 272.478L105.457 289.618C105.457 290.044 105.615 290.443 105.889 290.736C106.177 291.057 106.586 291.246 107.038 291.267C107.935 291.285 108.672 290.577 108.694 289.685Z" fill="#0EE9C4"/>
<path d="M114.772 284.115L115.146 266.986C115.163 266.095 114.455 265.359 113.565 265.336C112.668 265.318 111.927 266.028 111.909 266.914L111.546 284.043C111.532 284.486 111.693 284.885 111.963 285.178C112.254 285.489 112.661 285.688 113.115 285.698C114.011 285.72 114.756 285.013 114.772 284.115Z" fill="#0EE9C4"/>
<path d="M120.844 278.556L121.218 261.422C121.238 260.53 120.523 259.794 119.637 259.772C118.74 259.755 117.998 260.463 117.982 261.355L117.613 278.479C117.602 278.923 117.765 279.315 118.039 279.608C118.327 279.93 118.733 280.128 119.193 280.134C120.091 280.157 120.828 279.448 120.844 278.556Z" fill="#0EE9C4"/>
<path d="M258.81 63.466L259.175 46.3337C259.193 45.4369 258.489 44.7002 257.592 44.6836C256.712 44.6611 255.965 45.3705 255.941 46.2649L255.582 63.3972C255.57 63.8397 255.725 64.2252 256.008 64.5265C256.295 64.8361 256.699 65.0354 257.154 65.0461C258.044 65.0627 258.787 64.3545 258.81 63.466Z" fill="#0EE9C4"/>
<path d="M252.73 69.0321L253.096 51.9045C253.119 51.0077 252.409 50.2651 251.519 50.2544C250.632 50.2319 249.891 50.9413 249.873 51.8298L249.503 68.9573C249.498 69.3891 249.653 69.7913 249.924 70.0926C250.217 70.4058 250.626 70.6027 251.086 70.6074C251.966 70.6323 252.713 69.9241 252.73 69.0321Z" fill="#0EE9C4"/>
<path d="M246.651 74.5992L247.016 57.467C247.034 56.5702 246.33 55.8335 245.438 55.8228C244.547 55.8003 243.812 56.5037 243.794 57.3958L243.412 74.5257C243.412 74.9575 243.568 75.3561 243.833 75.6491C244.12 75.9682 244.537 76.158 244.995 76.1687C245.887 76.1995 246.628 75.4913 246.651 74.5992Z" fill="#0EE9C4"/>
<path d="M240.573 80.1603L240.943 63.0281C240.96 62.1336 240.256 61.3946 239.365 61.378C238.468 61.3614 237.732 62.0648 237.709 62.9474L237.344 80.088C237.338 80.5162 237.492 80.916 237.764 81.2149C238.057 81.5329 238.467 81.7274 238.925 81.7381C239.814 81.7606 240.555 81.0524 240.573 80.1603Z" fill="#0EE9C4"/>
<path d="M234.505 85.7278L234.87 68.5956C234.888 67.7011 234.179 66.968 233.293 66.9454C232.402 66.9348 231.665 67.6323 231.636 68.5291L231.271 85.6614C231.259 86.0908 231.426 86.4894 231.697 86.7824C231.984 87.1003 232.394 87.2949 232.858 87.3056C233.735 87.3281 234.476 86.6199 234.505 85.7278Z" fill="#0EE9C4"/>
<path d="M228.42 91.2889L228.79 74.1567C228.807 73.2681 228.097 72.5315 227.212 72.5089C226.315 72.4899 225.579 73.1934 225.556 74.0902L225.186 91.2177C225.174 91.6555 225.336 92.0505 225.606 92.353C225.893 92.6685 226.304 92.8678 226.767 92.8738C227.667 92.8892 228.402 92.1857 228.42 91.2889Z" fill="#0EE9C4"/>
<path d="M222.34 96.8584L222.716 79.7167C222.728 78.8281 222.025 78.0855 221.133 78.0749C220.236 78.0499 219.499 78.7641 219.477 79.6562L219.107 96.7884C219.101 97.2261 219.262 97.6164 219.532 97.9178C219.821 98.2274 220.23 98.4267 220.69 98.4373C221.581 98.4611 222.324 97.7469 222.34 96.8584Z" fill="#0EE9C4"/>
<path d="M216.262 102.426L216.638 85.2935C216.654 84.3966 215.951 83.6552 215.06 83.6433C214.162 83.6208 213.426 84.3349 213.404 85.2247L213.037 102.357C213.031 102.789 213.187 103.185 213.457 103.48C213.751 103.79 214.156 103.989 214.609 104.001C215.502 104.028 216.244 103.314 216.262 102.426Z" fill="#0EE9C4"/>
<path d="M210.194 107.987L210.559 90.8595C210.577 89.9567 209.868 89.2271 208.981 89.2034C208.085 89.1868 207.354 89.8903 207.331 90.7788L206.955 107.917C206.949 108.355 207.111 108.745 207.381 109.046C207.669 109.364 208.079 109.555 208.539 109.566C209.429 109.584 210.171 108.875 210.194 107.987Z" fill="#0EE9C4"/>
<path d="M204.11 113.554L204.475 96.4267C204.498 95.5299 203.794 94.7884 202.897 94.7706C202.001 94.76 201.264 95.4622 201.247 96.346L200.871 113.478C200.865 113.91 201.027 114.312 201.297 114.608C201.584 114.926 202.001 115.122 202.455 115.128C203.357 115.151 204.092 114.443 204.11 113.554Z" fill="#0EE9C4"/>
<path d="M198.034 119.121L198.41 101.983C198.421 101.086 197.719 100.35 196.827 100.333C195.936 100.316 195.193 101.025 195.171 101.914L194.805 119.042C194.793 119.474 194.955 119.87 195.225 120.165C195.518 120.484 195.929 120.675 196.383 120.691C197.276 120.72 198.013 120.012 198.034 119.121Z" fill="#0EE9C4"/>
<path d="M191.955 124.683L192.326 107.545C192.343 106.648 191.634 105.916 190.743 105.9C189.851 105.878 189.109 106.592 189.087 107.478L188.726 124.608C188.715 125.046 188.87 125.438 189.147 125.737C189.428 126.055 189.833 126.252 190.299 126.257C191.198 126.282 191.934 125.574 191.955 124.683Z" fill="#0EE9C4"/>
<path d="M185.883 130.249L186.248 113.116C186.266 112.228 185.557 111.485 184.67 111.466C183.774 111.45 183.037 112.158 183.014 113.049L182.649 130.176C182.637 130.612 182.799 131.01 183.069 131.303C183.357 131.617 183.767 131.816 184.227 131.826C185.125 131.849 185.861 131.141 185.883 130.249Z" fill="#0EE9C4"/>
<path d="M179.803 135.81L180.175 118.682C180.191 117.788 179.488 117.043 178.596 117.026C177.699 117.01 176.963 117.713 176.941 118.61L176.574 135.738C176.568 136.172 176.73 136.57 177 136.869C177.289 137.182 177.698 137.382 178.158 137.392C179.051 137.41 179.782 136.707 179.803 135.81Z" fill="#0EE9C4"/>
<path d="M169.079 115.475L160.074 187.172C160.019 187.653 160.182 188.125 160.489 188.456C160.744 188.738 161.083 188.922 161.48 188.972C162.366 189.088 163.177 188.452 163.284 187.571L172.211 116.463L296.313 2.80794C296.978 2.20768 297.016 1.18274 296.418 0.524354C295.814 -0.134031 294.802 -0.179109 294.137 0.427079L169.589 114.483C169.307 114.739 169.118 115.095 169.079 115.475Z" fill="#0EE9C4"/>
<path d="M20.6281 318.735L145.177 204.679C146.021 203.905 146.572 202.853 146.708 201.707L155.713 130.011C156.039 127.36 154.163 124.932 151.5 124.602C148.846 124.27 146.426 126.147 146.09 128.804L137.315 198.731L14.0786 311.581C12.107 313.385 11.9635 316.448 13.7797 318.429C15.5817 320.402 18.6482 320.529 20.6281 318.735Z" fill="#0EE9C4"/>
<path d="M267.513 180.262C267.48 179.377 266.733 178.674 265.842 178.706L193.64 181.375C193.254 181.392 192.882 181.547 192.606 181.795L68.056 295.853C67.4 296.463 67.3478 297.481 67.9564 298.135C68.5578 298.788 69.5816 298.844 70.24 298.234L194.348 184.582L265.957 181.94C266.86 181.902 267.545 181.148 267.513 180.262Z" fill="#0EE9C4"/>
<path d="M307.497 27.6165L178.775 145.493L173.144 182.406L301.861 64.5311L307.497 27.6165Z" fill="#0EE9C4"/>
<path d="M195.583 192.715L131.19 251.688L130.335 284.237L194.73 225.258L195.583 192.715Z" fill="#0EE9C4"/>
</g>
<defs>
<clipPath id="clip0">
<rect width="320" height="320" fill="white"/>
</clipPath>
</defs>
</svg>
