<svg width="320" height="320" viewBox="0 0 320 320" fill="none" xmlns="http://www.w3.org/2000/svg">
<g opacity="0.3" clip-path="url(#clip0)">
<path d="M299.697 293.908C300.588 293.889 301.324 294.597 301.347 295.489L301.717 312.616C301.729 313.519 301.03 314.25 300.133 314.267C299.247 314.283 298.512 313.58 298.483 312.688L298.123 295.564C298.112 295.126 298.272 294.727 298.544 294.434C298.826 294.116 299.242 293.919 299.697 293.908Z" fill="#0EE9C4"/>
<path d="M295.272 289.922L295.637 307.06C295.655 307.953 294.951 308.692 294.059 308.704C293.168 308.727 292.432 308.017 292.409 307.129L292.044 289.994C292.032 289.559 292.187 289.166 292.464 288.867C292.752 288.554 293.161 288.35 293.621 288.339C294.513 288.322 295.25 289.031 295.272 289.922Z" fill="#0EE9C4"/>
<path d="M289.187 284.355L289.558 301.487C289.58 302.381 288.871 303.12 287.98 303.143C287.089 303.16 286.346 302.451 286.33 301.565L285.96 284.433C285.948 283.999 286.109 283.606 286.38 283.306C286.667 282.988 287.083 282.789 287.537 282.783C288.429 282.756 289.171 283.464 289.187 284.355Z" fill="#0EE9C4"/>
<path d="M283.114 278.795L283.484 295.927C283.508 296.821 282.799 297.552 281.913 297.577C281.016 297.593 280.273 296.885 280.257 295.993L279.891 278.861C279.879 278.423 280.041 278.033 280.311 277.734C280.604 277.416 281.003 277.222 281.469 277.211C282.358 277.194 283.093 277.902 283.114 278.795Z" fill="#0EE9C4"/>
<path d="M277.041 273.23L277.407 290.358C277.429 291.253 276.726 291.99 275.84 292.009C274.943 292.025 274.207 291.322 274.19 290.431L273.819 273.299C273.814 272.861 273.969 272.47 274.239 272.172C274.528 271.852 274.938 271.653 275.397 271.648C276.277 271.633 277.019 272.341 277.041 273.23Z" fill="#0EE9C4"/>
<path d="M270.955 267.663L271.326 284.795C271.343 285.692 270.646 286.428 269.749 286.445C268.851 286.462 268.12 285.758 268.097 284.864L267.732 267.736C267.72 267.298 267.876 266.908 268.152 266.613C268.44 266.296 268.85 266.092 269.304 266.081C270.208 266.066 270.94 266.774 270.955 267.663Z" fill="#0EE9C4"/>
<path d="M264.883 262.095L265.253 279.228C265.264 280.124 264.566 280.861 263.669 280.878C262.778 280.9 262.042 280.186 262.019 279.302L261.649 262.17C261.637 261.732 261.793 261.342 262.069 261.047C262.356 260.731 262.767 260.532 263.221 260.526C264.124 260.499 264.856 261.207 264.883 262.095Z" fill="#0EE9C4"/>
<path d="M81.5273 25.2652L81.1584 8.13063C81.1524 7.68814 81.3138 7.30024 81.5842 7.0013C81.8666 6.68575 82.2818 6.48646 82.742 6.47578C83.6353 6.45917 84.3672 7.16262 84.3922 8.05352L84.7611 25.1834C84.7777 26.0802 84.0695 26.8157 83.1774 26.8335C82.2818 26.8549 81.5463 26.1573 81.5273 25.2652Z" fill="#0EE9C4"/>
<path d="M87.5999 30.8231L87.231 13.6944C87.2203 13.2626 87.3828 12.864 87.6545 12.571C87.9451 12.2542 88.3461 12.0514 88.8063 12.0455C89.7032 12.0288 90.4458 12.737 90.4624 13.6173L90.8313 30.7519C90.8479 31.6488 90.1397 32.3854 89.25 32.4021C88.3579 32.4187 87.6224 31.7152 87.5999 30.8231Z" fill="#0EE9C4"/>
<path d="M96.5462 19.1869L96.9092 36.3215C96.9317 37.2183 96.2223 37.9491 95.3314 37.9716C94.437 37.9894 93.6979 37.28 93.6813 36.3938L93.3136 19.2533C93.3088 18.8334 93.4678 18.4289 93.7394 18.1406C94.0277 17.8191 94.437 17.6198 94.8961 17.6091C95.7798 17.5866 96.5213 18.2948 96.5462 19.1869Z" fill="#0EE9C4"/>
<path d="M102.618 24.7564L102.981 41.8756C103.004 42.7724 102.289 43.5138 101.406 43.5304C100.515 43.5542 99.7722 42.8448 99.7615 41.9527L99.3878 24.824C99.3831 24.3922 99.5456 23.9936 99.8172 23.7065C100.102 23.3898 100.509 23.1857 100.969 23.175C101.865 23.1513 102.601 23.8583 102.618 24.7564Z" fill="#0EE9C4"/>
<path d="M108.694 30.3154L109.064 47.4499C109.081 48.3361 108.373 49.0894 107.487 49.1001C106.592 49.1226 105.853 48.4144 105.831 47.5223L105.457 30.3818C105.457 29.9559 105.615 29.5573 105.889 29.2643C106.177 28.9428 106.586 28.7542 107.038 28.7329C107.935 28.7151 108.672 29.4233 108.694 30.3154Z" fill="#0EE9C4"/>
<path d="M114.772 35.885L115.146 53.0136C115.163 53.9045 114.455 54.6412 113.565 54.6637C112.668 54.6815 111.927 53.9721 111.909 53.086L111.546 35.9574C111.532 35.5137 111.693 35.1151 111.963 34.8221C112.254 34.5113 112.661 34.312 113.115 34.3025C114.011 34.28 114.756 34.987 114.772 35.885Z" fill="#0EE9C4"/>
<path d="M120.844 41.4437L121.218 58.5784C121.238 59.4704 120.523 60.2059 119.637 60.2285C118.74 60.2451 117.998 59.5369 117.982 58.6448L117.613 41.5208C117.602 41.0772 117.765 40.6845 118.039 40.3915C118.327 40.07 118.733 39.8719 119.193 39.866C120.091 39.8434 120.828 40.5516 120.844 41.4437Z" fill="#0EE9C4"/>
<path d="M258.81 256.534L259.175 273.666C259.193 274.563 258.489 275.3 257.592 275.316C256.712 275.339 255.965 274.63 255.941 273.735L255.582 256.603C255.57 256.16 255.725 255.775 256.008 255.473C256.295 255.164 256.699 254.965 257.154 254.954C258.044 254.937 258.787 255.645 258.81 256.534Z" fill="#0EE9C4"/>
<path d="M252.73 250.968L253.096 268.095C253.119 268.992 252.409 269.735 251.519 269.746C250.632 269.768 249.891 269.059 249.873 268.17L249.503 251.043C249.498 250.611 249.653 250.209 249.924 249.907C250.217 249.594 250.626 249.397 251.086 249.393C251.966 249.368 252.713 250.076 252.73 250.968Z" fill="#0EE9C4"/>
<path d="M246.651 245.401L247.016 262.533C247.034 263.43 246.33 264.167 245.438 264.177C244.547 264.2 243.812 263.496 243.794 262.604L243.412 245.474C243.412 245.043 243.568 244.644 243.833 244.351C244.12 244.032 244.537 243.842 244.995 243.831C245.887 243.8 246.628 244.509 246.651 245.401Z" fill="#0EE9C4"/>
<path d="M240.573 239.84L240.943 256.972C240.96 257.866 240.256 258.605 239.365 258.622C238.468 258.639 237.732 257.935 237.709 257.053L237.344 239.912C237.338 239.484 237.492 239.084 237.764 238.785C238.057 238.467 238.467 238.273 238.925 238.262C239.814 238.239 240.555 238.948 240.573 239.84Z" fill="#0EE9C4"/>
<path d="M234.505 234.272L234.87 251.404C234.888 252.299 234.179 253.032 233.293 253.055C232.402 253.065 231.665 252.368 231.636 251.471L231.271 234.339C231.259 233.909 231.426 233.511 231.697 233.218C231.984 232.9 232.394 232.705 232.858 232.694C233.735 232.672 234.476 233.38 234.505 234.272Z" fill="#0EE9C4"/>
<path d="M228.42 228.711L228.79 245.843C228.807 246.732 228.097 247.469 227.212 247.491C226.315 247.51 225.579 246.807 225.556 245.91L225.186 228.782C225.174 228.345 225.336 227.95 225.606 227.647C225.893 227.331 226.304 227.132 226.767 227.126C227.667 227.111 228.402 227.814 228.42 228.711Z" fill="#0EE9C4"/>
<path d="M222.34 223.142L222.716 240.283C222.728 241.172 222.025 241.914 221.133 241.925C220.236 241.95 219.499 241.236 219.477 240.344L219.107 223.212C219.101 222.774 219.262 222.384 219.532 222.082C219.821 221.773 220.23 221.573 220.69 221.563C221.581 221.539 222.324 222.253 222.34 223.142Z" fill="#0EE9C4"/>
<path d="M216.262 217.574L216.638 234.707C216.654 235.603 215.951 236.345 215.06 236.357C214.162 236.379 213.426 235.665 213.404 234.775L213.037 217.643C213.031 217.211 213.187 216.815 213.457 216.52C213.751 216.21 214.156 216.011 214.609 215.999C215.502 215.972 216.244 216.686 216.262 217.574Z" fill="#0EE9C4"/>
<path d="M210.194 212.013L210.559 229.141C210.577 230.043 209.868 230.773 208.981 230.797C208.085 230.813 207.354 230.11 207.331 229.221L206.955 212.083C206.949 211.645 207.111 211.255 207.381 210.954C207.669 210.636 208.079 210.445 208.539 210.434C209.429 210.416 210.171 211.125 210.194 212.013Z" fill="#0EE9C4"/>
<path d="M204.11 206.446L204.475 223.573C204.498 224.47 203.794 225.212 202.897 225.229C202.001 225.24 201.264 224.538 201.247 223.654L200.871 206.522C200.865 206.09 201.027 205.688 201.297 205.392C201.584 205.074 202.001 204.878 202.455 204.872C203.357 204.849 204.092 205.557 204.11 206.446Z" fill="#0EE9C4"/>
<path d="M198.034 200.879L198.41 218.017C198.421 218.914 197.719 219.65 196.827 219.667C195.936 219.684 195.193 218.975 195.171 218.086L194.805 200.958C194.793 200.526 194.955 200.13 195.225 199.835C195.518 199.516 195.929 199.325 196.383 199.309C197.276 199.28 198.013 199.988 198.034 200.879Z" fill="#0EE9C4"/>
<path d="M191.955 195.317L192.326 212.455C192.343 213.352 191.634 214.084 190.743 214.1C189.851 214.122 189.109 213.408 189.087 212.522L188.726 195.392C188.715 194.954 188.87 194.562 189.147 194.263C189.428 193.945 189.833 193.748 190.299 193.743C191.198 193.718 191.934 194.426 191.955 195.317Z" fill="#0EE9C4"/>
<path d="M185.883 189.751L186.248 206.884C186.266 207.772 185.557 208.515 184.67 208.534C183.774 208.55 183.037 207.842 183.014 206.951L182.649 189.824C182.637 189.388 182.799 188.99 183.069 188.697C183.357 188.383 183.767 188.184 184.227 188.174C185.125 188.151 185.861 188.859 185.883 189.751Z" fill="#0EE9C4"/>
<path d="M179.803 184.19L180.175 201.318C180.191 202.212 179.488 202.957 178.596 202.974C177.699 202.99 176.963 202.287 176.941 201.39L176.574 184.262C176.568 183.828 176.73 183.43 177 183.131C177.289 182.818 177.698 182.618 178.158 182.608C179.051 182.59 179.782 183.293 179.803 184.19Z" fill="#0EE9C4"/>
<path d="M169.079 204.525L160.074 132.828C160.019 132.347 160.182 131.875 160.489 131.544C160.744 131.262 161.083 131.078 161.48 131.028C162.366 130.912 163.177 131.548 163.284 132.429L172.211 203.537L296.313 317.192C296.978 317.792 297.016 318.817 296.418 319.476C295.814 320.134 294.802 320.179 294.137 319.573L169.589 205.517C169.307 205.261 169.118 204.905 169.079 204.525Z" fill="#0EE9C4"/>
<path d="M20.6281 1.26454L145.177 115.321C146.021 116.095 146.572 117.147 146.708 118.293L155.713 189.989C156.039 192.64 154.163 195.068 151.5 195.398C148.846 195.73 146.426 193.853 146.09 191.196L137.315 121.269L14.0786 8.41901C12.107 6.61467 11.9635 3.55168 13.7797 1.5706C15.5817 -0.402176 18.6482 -0.529114 20.6281 1.26454Z" fill="#0EE9C4"/>
<path d="M267.513 139.738C267.48 140.623 266.733 141.326 265.842 141.294L193.64 138.625C193.254 138.608 192.882 138.453 192.606 138.205L68.056 24.1467C67.4 23.5369 67.3478 22.5191 67.9564 21.8655C68.5578 21.2118 69.5816 21.1561 70.24 21.7658L194.348 135.418L265.957 138.06C266.86 138.098 267.545 138.852 267.513 139.738Z" fill="#0EE9C4"/>
<path d="M307.497 292.384L178.775 174.507L173.144 137.594L301.861 255.469L307.497 292.384Z" fill="#0EE9C4"/>
<path d="M195.583 127.285L131.19 68.3119L130.335 35.7628L194.73 94.7422L195.583 127.285Z" fill="#0EE9C4"/>
</g>
<defs>
<clipPath id="clip0">
<rect width="320" height="320" fill="white" transform="matrix(1 0 0 -1 0 320)"/>
</clipPath>
</defs>
</svg>
