<svg width="939" height="561" viewBox="0 0 939 561" fill="none" xmlns="http://www.w3.org/2000/svg">
<g clip-path="url(#clip0)">
<path d="M553.461 479.308C559.021 481.737 562.918 487.276 562.918 493.726C562.918 502.403 555.851 509.465 547.174 509.465C538.491 509.465 531.427 502.403 531.427 493.726C531.427 486.192 536.745 479.911 543.815 478.358L581.698 434.557L581.698 294.978L448.846 162.112C448.1 161.364 447.689 160.36 447.689 159.316L447.689 83.3093C440.925 81.5344 435.901 75.4357 435.901 68.1223C435.901 59.4366 442.968 52.3784 451.649 52.3784C460.326 52.3784 467.392 59.4449 467.392 68.1223C467.392 75.4357 462.366 81.5344 455.609 83.3093L455.609 157.677L588.454 290.54C589.197 291.283 589.619 292.289 589.619 293.339L589.619 436.04C589.619 436.983 589.278 437.905 588.653 438.624L553.461 479.308ZM547.172 485.899C542.857 485.899 539.345 489.41 539.345 493.727C539.345 498.043 542.857 501.546 547.172 501.546C551.488 501.546 554.996 498.043 554.996 493.727C554.996 489.41 551.481 485.899 547.172 485.899ZM459.471 68.1223C459.471 63.8068 455.962 60.2984 451.647 60.2984C447.331 60.2984 443.82 63.8052 443.82 68.1223C443.82 72.4411 447.331 75.9495 451.647 75.9495C455.964 75.9578 459.471 72.4411 459.471 68.1223Z" fill="#0EE9C4"/>
<path d="M520.617 479.348L559.355 434.557V294.979L426.498 162.112C425.756 161.364 425.342 160.36 425.342 159.316V81.1517C425.342 78.9658 427.117 77.1909 429.302 77.1909C431.492 77.1909 433.263 78.9658 433.263 81.1517V157.677L566.12 290.54C566.862 291.283 567.276 292.289 567.276 293.333V436.029C567.276 436.987 566.925 437.9 566.31 438.626L526.606 484.522C525.82 485.428 524.723 485.899 523.613 485.899C522.692 485.899 521.777 485.574 521.023 484.933C519.364 483.502 519.19 481.003 520.617 479.348Z" fill="#0EE9C4"/>
<path d="M330.872 118.263L464.884 252.291C466.427 253.839 466.427 256.343 464.884 257.891C464.107 258.665 463.094 259.043 462.088 259.043C461.076 259.043 460.061 258.657 459.284 257.891L326.441 125.027L233.45 125.027C231.68 131.782 225.568 136.814 218.268 136.814C209.589 136.814 202.527 129.749 202.527 121.067C202.527 112.381 209.589 105.323 218.268 105.323C225.568 105.323 231.68 110.351 233.45 117.106L328.073 117.106C329.124 117.107 330.132 117.528 330.872 118.263ZM218.259 113.244C213.944 113.244 210.431 116.751 210.431 121.068C210.431 125.384 213.942 128.895 218.259 128.895C222.575 128.895 226.086 125.384 226.086 121.068C226.086 116.751 222.575 113.244 218.259 113.244Z" fill="#0EE9C4"/>
<path d="M387.698 428.78L253.686 294.751C252.144 293.204 252.144 290.699 253.686 289.152C254.464 288.378 255.476 288 256.482 288C257.495 288 258.509 288.386 259.286 289.152L392.129 422.015L485.121 422.015C486.891 415.26 493.003 410.229 500.303 410.229C508.982 410.229 516.043 417.294 516.043 425.976C516.043 434.662 508.982 441.72 500.303 441.72C493.003 441.72 486.891 436.692 485.121 429.937L390.497 429.937C389.446 429.935 388.439 429.514 387.698 428.78ZM500.311 433.798C504.626 433.798 508.14 430.291 508.14 425.974C508.14 421.659 504.628 418.147 500.311 418.147C495.996 418.147 492.484 421.659 492.484 425.974C492.484 430.291 495.996 433.798 500.311 433.798Z" fill="#0EE9C4"/>
<path d="M274.786 207.534C273.016 214.299 266.904 219.322 259.604 219.322C250.924 219.322 243.855 212.255 243.855 203.574C243.855 194.889 250.924 187.831 259.604 187.831C266.904 187.831 273.016 192.859 274.786 199.614L369.603 199.614C370.639 199.614 371.643 200.035 372.396 200.77L441.615 269.588C450.011 269.921 456.751 276.797 456.751 285.274C456.751 293.959 449.686 301.014 441.004 301.014C432.327 301.014 425.26 293.951 425.26 285.274C425.26 279.624 428.268 274.705 432.744 271.924L367.979 207.527L274.787 207.527V207.534H274.786ZM259.602 195.751C255.286 195.751 251.773 199.257 251.773 203.574C251.773 207.89 255.285 211.402 259.602 211.402C263.917 211.402 267.429 207.89 267.429 203.574C267.429 199.257 263.917 195.751 259.602 195.751ZM441.002 293.109C445.318 293.109 448.829 289.597 448.829 285.28C448.829 280.961 445.318 277.453 441.002 277.453C436.687 277.453 433.178 280.961 433.178 285.28C433.18 289.589 436.687 293.109 441.002 293.109Z" fill="#0EE9C4"/>
<path d="M556.931 184.481C555.161 177.716 549.049 172.693 541.749 172.693C533.07 172.693 526 179.759 526 188.44C526 197.125 533.07 204.184 541.749 204.184C549.049 204.184 555.161 199.155 556.931 192.401L651.749 192.401C652.784 192.401 653.789 191.98 654.541 191.244L723.761 122.426C732.156 122.093 738.896 115.217 738.896 106.741C738.896 98.0549 731.832 91 723.149 91C714.472 91 707.406 98.0632 707.406 106.741C707.406 112.39 710.413 117.309 714.89 120.09L650.125 184.487L556.933 184.487V184.481H556.931ZM541.747 196.264C537.432 196.264 533.919 192.757 533.919 188.44C533.919 184.124 537.43 180.613 541.747 180.613C546.063 180.613 549.575 184.124 549.575 188.44C549.575 192.757 546.063 196.264 541.747 196.264ZM723.148 98.9051C727.463 98.9051 730.975 102.417 730.975 106.734C730.975 111.053 727.463 114.561 723.148 114.561C718.832 114.561 715.324 111.053 715.324 106.734C715.325 102.425 718.832 98.9051 723.148 98.9051Z" fill="#0EE9C4"/>
<path d="M492.586 509.473C483.903 509.473 476.842 502.403 476.842 493.726C476.842 485.04 483.903 477.977 492.586 477.977C494.662 477.977 496.643 478.411 498.456 479.145L537.016 434.564L537.016 294.979L404.165 162.112C403.423 161.364 403.008 160.36 403.008 159.316V81.1517C403.008 78.9658 404.783 77.1909 406.969 77.1909C409.155 77.1909 410.93 78.9658 410.93 81.1517V157.677L543.773 290.54C544.519 291.283 544.93 292.289 544.93 293.333L544.93 436.029C544.93 436.987 544.588 437.9 543.964 438.626L504.793 483.903C506.971 486.611 508.323 489.991 508.323 493.728C508.329 502.405 501.268 509.473 492.586 509.473ZM492.586 485.899C488.27 485.899 484.762 489.41 484.762 493.728C484.762 498.043 488.27 501.547 492.586 501.547C496.901 501.547 500.409 498.043 500.409 493.728C500.409 489.41 496.903 485.899 492.586 485.899Z" fill="#0EE9C4"/>
</g>
<circle cx="444" cy="269" r="240" stroke="#0EE9C4" stroke-width="4" stroke-linecap="round" stroke-linejoin="round" stroke-dasharray="12 16"/>
<path d="M30 259H350L320 359H0L30 259Z" fill="#162454"/>
<path d="M110.041 315.739L111.374 313.678C112.167 314.519 113.028 314.939 113.958 314.939C115.653 314.939 116.5 314.143 116.5 312.55C116.5 311.825 116.254 311.237 115.762 310.786C115.27 310.328 114.607 310.099 113.773 310.099H113.301V307.905H113.701C115.232 307.905 115.998 307.266 115.998 305.987C115.998 304.647 115.284 303.978 113.855 303.978C113.117 303.978 112.399 304.326 111.702 305.023L110.451 303.188C110.772 302.792 111.274 302.446 111.958 302.152C112.642 301.858 113.325 301.711 114.009 301.711C115.506 301.711 116.671 302.053 117.505 302.737C118.346 303.42 118.767 304.377 118.767 305.608C118.767 307.071 118.138 308.185 116.88 308.951C118.473 309.716 119.269 310.967 119.269 312.704C119.269 314.132 118.794 315.24 117.844 316.026C116.9 316.812 115.595 317.205 113.927 317.205C112.409 317.205 111.114 316.716 110.041 315.739ZM122.663 315.657C122.663 315.144 122.841 314.71 123.196 314.354C123.559 313.992 123.996 313.811 124.509 313.811C125.021 313.811 125.456 313.992 125.811 314.354C126.173 314.71 126.354 315.144 126.354 315.657C126.354 316.169 126.173 316.607 125.811 316.969C125.456 317.332 125.021 317.513 124.509 317.513C123.996 317.513 123.559 317.332 123.196 316.969C122.841 316.607 122.663 316.169 122.663 315.657ZM145.109 317V310.232H139.131V317H136.465V301.978H139.131V307.864H145.109V301.978H147.744V317H145.109ZM153.486 304.347V307.864H158.449V310.13H153.486V314.631H160.295V317H150.82V301.978H160.408V304.347H153.486ZM171.246 317L167.237 310.796C166.833 310.79 166.27 310.766 165.545 310.725V317H162.776V301.978C162.927 301.978 163.504 301.954 164.509 301.906C165.514 301.852 166.324 301.824 166.939 301.824C170.754 301.824 172.661 303.301 172.661 306.254C172.661 307.143 172.398 307.953 171.872 308.684C171.345 309.416 170.682 309.932 169.882 310.232L174.322 317H171.246ZM165.545 304.295V308.469C166.037 308.51 166.413 308.53 166.673 308.53C167.787 308.53 168.601 308.373 169.113 308.059C169.633 307.744 169.893 307.132 169.893 306.223C169.893 305.485 169.616 304.969 169.062 304.675C168.508 304.381 167.637 304.234 166.447 304.234C166.16 304.234 165.859 304.254 165.545 304.295ZM189.621 317.01H187.037L185.479 308.91L182.454 317.205H181.5L178.475 308.91L176.855 317.01H174.281L177.306 301.978H178.721L181.972 312.099L185.15 301.978H186.555L189.621 317.01ZM193.928 304.347V307.864H198.891V310.13H193.928V314.631H200.736V317H191.262V301.978H200.849V304.347H193.928ZM202.5 316.169L203.484 313.78C204.537 314.519 205.573 314.888 206.591 314.888C208.157 314.888 208.939 314.341 208.939 313.247C208.939 312.734 208.755 312.246 208.386 311.781C208.017 311.316 207.254 310.796 206.099 310.222C204.951 309.641 204.175 309.166 203.771 308.797C203.375 308.421 203.067 307.977 202.849 307.464C202.637 306.951 202.531 306.384 202.531 305.762C202.531 304.6 202.955 303.636 203.802 302.87C204.657 302.104 205.75 301.722 207.083 301.722C208.82 301.722 210.095 302.046 210.908 302.696L210.098 304.993C209.162 304.323 208.174 303.988 207.135 303.988C206.52 303.988 206.041 304.152 205.699 304.48C205.364 304.801 205.197 305.222 205.197 305.741C205.197 306.603 206.15 307.498 208.058 308.428C209.062 308.92 209.787 309.375 210.231 309.792C210.676 310.202 211.014 310.684 211.247 311.237C211.479 311.784 211.595 312.396 211.595 313.073C211.595 314.29 211.113 315.291 210.149 316.077C209.192 316.863 207.907 317.256 206.294 317.256C204.893 317.256 203.628 316.894 202.5 316.169Z" fill="white"/>
<path d="M405.988 466.029C407.203 462.992 410.145 461 413.416 461H716.184C721.843 461 725.714 466.716 723.612 471.971L690.012 555.971C688.797 559.008 685.855 561 682.584 561H379.816C374.157 561 370.286 555.284 372.388 550.029L405.988 466.029Z" fill="#162454"/>
<path d="M472.516 503.073V507H469.953V503.073H463.113V501.545L471.347 491.917H472.516V500.96H474.034V503.073H472.516ZM469.953 496.449L466.097 500.96H469.953V496.449ZM476.515 505.657C476.515 505.144 476.693 504.71 477.048 504.354C477.411 503.992 477.848 503.811 478.361 503.811C478.874 503.811 479.308 503.992 479.663 504.354C480.025 504.71 480.207 505.144 480.207 505.657C480.207 506.169 480.025 506.607 479.663 506.969C479.308 507.332 478.874 507.513 478.361 507.513C477.848 507.513 477.411 507.332 477.048 506.969C476.693 506.607 476.515 506.169 476.515 505.657ZM499.084 507L497.987 503.955H492.839L491.793 507H488.83L494.818 491.773H495.987L502.027 507H499.084ZM495.403 496.367L493.598 501.914H497.208L495.403 496.367ZM517.633 507.01H515.049L513.491 498.91L510.466 507.205H509.512L506.487 498.91L504.867 507.01H502.293L505.318 491.978H506.733L509.984 502.099L513.163 491.978H514.567L517.633 507.01ZM523.868 507H519.274V491.988C521.297 491.893 522.716 491.845 523.529 491.845C525.088 491.845 526.305 492.18 527.18 492.85C528.062 493.513 528.502 494.463 528.502 495.7C528.502 496.89 527.874 497.83 526.616 498.52C528.482 499.169 529.415 500.509 529.415 502.54C529.415 503.907 528.899 504.994 527.867 505.8C526.834 506.6 525.501 507 523.868 507ZM521.94 494.121V497.72C522.35 497.748 522.781 497.761 523.232 497.761C524.968 497.761 525.836 497.108 525.836 495.803C525.836 494.647 525.047 494.07 523.468 494.07C523.051 494.07 522.542 494.087 521.94 494.121ZM521.94 499.802V504.765C522.48 504.812 522.917 504.836 523.252 504.836C524.442 504.836 525.303 504.635 525.836 504.231C526.376 503.828 526.646 503.158 526.646 502.222C526.646 501.367 526.397 500.745 525.898 500.355C525.399 499.966 524.527 499.771 523.283 499.771C523.023 499.771 522.576 499.781 521.94 499.802ZM540.253 507L536.244 500.796C535.841 500.79 535.277 500.766 534.552 500.725V507H531.784V491.978C531.934 491.978 532.512 491.954 533.517 491.906C534.521 491.852 535.332 491.824 535.947 491.824C539.761 491.824 541.668 493.301 541.668 496.254C541.668 497.143 541.405 497.953 540.879 498.684C540.353 499.416 539.689 499.932 538.89 500.232L543.33 507H540.253ZM534.552 494.295V498.469C535.044 498.51 535.42 498.53 535.68 498.53C536.794 498.53 537.608 498.373 538.121 498.059C538.64 497.744 538.9 497.132 538.9 496.223C538.9 495.485 538.623 494.969 538.069 494.675C537.516 494.381 536.644 494.234 535.455 494.234C535.167 494.234 534.867 494.254 534.552 494.295ZM543.904 499.361C543.904 497.221 544.488 495.413 545.657 493.937C546.833 492.453 548.402 491.711 550.364 491.711C552.524 491.711 554.175 492.381 555.316 493.721C556.458 495.061 557.029 496.941 557.029 499.361C557.029 501.781 556.431 503.702 555.234 505.124C554.045 506.545 552.353 507.256 550.159 507.256C548.142 507.256 546.594 506.552 545.514 505.144C544.44 503.736 543.904 501.808 543.904 499.361ZM546.672 499.361C546.672 501.118 546.97 502.478 547.564 503.442C548.159 504.406 549.024 504.888 550.159 504.888C551.492 504.888 552.507 504.416 553.204 503.473C553.908 502.529 554.26 501.159 554.26 499.361C554.26 495.84 552.961 494.08 550.364 494.08C549.174 494.08 548.262 494.559 547.626 495.516C546.99 496.466 546.672 497.748 546.672 499.361ZM558.669 506.169L559.654 503.78C560.707 504.519 561.742 504.888 562.761 504.888C564.326 504.888 565.109 504.341 565.109 503.247C565.109 502.734 564.924 502.246 564.555 501.781C564.186 501.316 563.424 500.796 562.269 500.222C561.12 499.641 560.344 499.166 559.941 498.797C559.544 498.421 559.237 497.977 559.018 497.464C558.806 496.951 558.7 496.384 558.7 495.762C558.7 494.6 559.124 493.636 559.972 492.87C560.826 492.104 561.92 491.722 563.253 491.722C564.989 491.722 566.264 492.046 567.078 492.696L566.268 494.993C565.331 494.323 564.343 493.988 563.304 493.988C562.689 493.988 562.21 494.152 561.869 494.48C561.534 494.801 561.366 495.222 561.366 495.741C561.366 496.603 562.32 497.498 564.227 498.428C565.232 498.92 565.957 499.375 566.401 499.792C566.845 500.202 567.184 500.684 567.416 501.237C567.648 501.784 567.765 502.396 567.765 503.073C567.765 504.29 567.283 505.291 566.319 506.077C565.362 506.863 564.077 507.256 562.463 507.256C561.062 507.256 559.797 506.894 558.669 506.169ZM570.133 491.978H572.799V502.16C572.799 502.967 573.045 503.623 573.538 504.129C574.03 504.635 574.707 504.888 575.568 504.888C576.532 504.888 577.28 504.642 577.813 504.149C578.354 503.65 578.624 502.97 578.624 502.109V491.978H581.29V502.314C581.29 503.859 580.77 505.069 579.731 505.944C578.699 506.819 577.318 507.256 575.588 507.256C573.845 507.256 572.499 506.829 571.548 505.975C570.605 505.12 570.133 503.896 570.133 502.304V491.978ZM583.648 506.169L584.632 503.78C585.685 504.519 586.721 504.888 587.739 504.888C589.305 504.888 590.087 504.341 590.087 503.247C590.087 502.734 589.903 502.246 589.534 501.781C589.165 501.316 588.402 500.796 587.247 500.222C586.099 499.641 585.323 499.166 584.919 498.797C584.523 498.421 584.215 497.977 583.997 497.464C583.785 496.951 583.679 496.384 583.679 495.762C583.679 494.6 584.103 493.636 584.95 492.87C585.805 492.104 586.898 491.722 588.231 491.722C589.968 491.722 591.243 492.046 592.056 492.696L591.246 494.993C590.31 494.323 589.322 493.988 588.283 493.988C587.667 493.988 587.189 494.152 586.847 494.48C586.512 494.801 586.345 495.222 586.345 495.741C586.345 496.603 587.298 497.498 589.206 498.428C590.21 498.92 590.935 499.375 591.379 499.792C591.824 500.202 592.162 500.684 592.395 501.237C592.627 501.784 592.743 502.396 592.743 503.073C592.743 504.29 592.261 505.291 591.297 506.077C590.34 506.863 589.055 507.256 587.442 507.256C586.041 507.256 584.776 506.894 583.648 506.169ZM471.583 531H466.989V515.988C469.013 515.893 470.431 515.845 471.245 515.845C472.803 515.845 474.02 516.18 474.895 516.85C475.777 517.513 476.218 518.463 476.218 519.7C476.218 520.89 475.589 521.83 474.331 522.52C476.197 523.169 477.13 524.509 477.13 526.54C477.13 527.907 476.614 528.994 475.582 529.8C474.55 530.6 473.217 531 471.583 531ZM469.655 518.121V521.72C470.065 521.748 470.496 521.761 470.947 521.761C472.684 521.761 473.552 521.108 473.552 519.803C473.552 518.647 472.762 518.07 471.183 518.07C470.766 518.07 470.257 518.087 469.655 518.121ZM469.655 523.802V528.765C470.195 528.812 470.633 528.836 470.968 528.836C472.157 528.836 473.019 528.635 473.552 528.231C474.092 527.828 474.362 527.158 474.362 526.222C474.362 525.367 474.112 524.745 473.613 524.355C473.114 523.966 472.243 523.771 470.999 523.771C470.739 523.771 470.291 523.781 469.655 523.802ZM479.499 531V515.978H482.165V528.631H488.953V531H479.499ZM490.389 523.361C490.389 521.221 490.973 519.413 492.142 517.937C493.318 516.453 494.887 515.711 496.849 515.711C499.009 515.711 500.66 516.381 501.801 517.721C502.943 519.061 503.514 520.941 503.514 523.361C503.514 525.781 502.916 527.702 501.719 529.124C500.53 530.545 498.838 531.256 496.644 531.256C494.627 531.256 493.079 530.552 491.999 529.144C490.925 527.736 490.389 525.808 490.389 523.361ZM493.157 523.361C493.157 525.118 493.455 526.478 494.049 527.442C494.644 528.406 495.509 528.888 496.644 528.888C497.977 528.888 498.992 528.416 499.689 527.473C500.393 526.529 500.745 525.159 500.745 523.361C500.745 519.84 499.446 518.08 496.849 518.08C495.659 518.08 494.747 518.559 494.111 519.516C493.475 520.466 493.157 521.748 493.157 523.361ZM516.167 516.778L515.07 518.982C514.475 518.388 513.518 518.09 512.199 518.09C510.948 518.09 509.922 518.617 509.123 519.669C508.323 520.715 507.923 522.042 507.923 523.648C507.923 525.254 508.292 526.529 509.03 527.473C509.775 528.416 510.767 528.888 512.004 528.888C513.419 528.888 514.526 528.382 515.326 527.37L516.567 529.523C515.48 530.679 513.887 531.256 511.789 531.256C509.69 531.256 508.06 530.566 506.897 529.185C505.735 527.804 505.154 525.921 505.154 523.535C505.154 521.313 505.797 519.458 507.082 517.967C508.374 516.47 510.025 515.722 512.035 515.722C513.757 515.722 515.135 516.074 516.167 516.778ZM527.251 531L523.068 524.602L521.396 526.888V531H518.73V515.978H521.396V523.166L526.503 515.978H529.538L524.832 522.541L530.44 531H527.251ZM541.986 516.778L540.889 518.982C540.294 518.388 539.337 518.09 538.018 518.09C536.767 518.09 535.742 518.617 534.942 519.669C534.142 520.715 533.742 522.042 533.742 523.648C533.742 525.254 534.111 526.529 534.85 527.473C535.595 528.416 536.586 528.888 537.823 528.888C539.238 528.888 540.346 528.382 541.146 527.37L542.386 529.523C541.299 530.679 539.707 531.256 537.608 531.256C535.509 531.256 533.879 530.566 532.717 529.185C531.555 527.804 530.974 525.921 530.974 523.535C530.974 521.313 531.616 519.458 532.901 517.967C534.193 516.47 535.844 515.722 537.854 515.722C539.577 515.722 540.954 516.074 541.986 516.778ZM553.194 531V524.232H547.216V531H544.55V515.978H547.216V521.864H553.194V515.978H555.829V531H553.194ZM567.672 531L566.575 527.955H561.428L560.382 531H557.418L563.407 515.773H564.576L570.615 531H567.672ZM563.991 520.367L562.187 525.914H565.796L563.991 520.367ZM572.266 531V515.978H574.932V531H572.266ZM587.914 531.205L580.623 521.7V531.01H578.06V515.978H579.341L586.437 525.042V515.978H589V531.205H587.914Z" fill="white"/>
<path d="M326.988 5.02887C328.203 1.9916 331.145 0 334.416 0H637.184C642.843 0 646.714 5.71621 644.612 10.9711L611.012 94.9711C609.797 98.0084 606.855 100 603.584 100H300.816C295.157 100 291.286 94.2838 293.388 89.0289L326.988 5.02887Z" fill="#162454"/>
<path d="M404.619 58V47.1719L401.563 49.0073V46.4438C403.525 45.4937 405.077 44.3179 406.218 42.9165H407.285V58H404.619ZM412.873 56.6567C412.873 56.144 413.051 55.71 413.406 55.3545C413.769 54.9922 414.206 54.811 414.719 54.811C415.231 54.811 415.666 54.9922 416.021 55.3545C416.383 55.71 416.564 56.144 416.564 56.6567C416.564 57.1694 416.383 57.6069 416.021 57.9692C415.666 58.3315 415.231 58.5127 414.719 58.5127C414.206 58.5127 413.769 58.3315 413.406 57.9692C413.051 57.6069 412.873 57.1694 412.873 56.6567ZM425.957 57.1694L426.941 54.7803C427.994 55.5186 429.03 55.8877 430.048 55.8877C431.614 55.8877 432.396 55.3408 432.396 54.2471C432.396 53.7344 432.212 53.2456 431.843 52.7808C431.474 52.3159 430.711 51.7964 429.556 51.2222C428.408 50.6411 427.632 50.166 427.229 49.7969C426.832 49.4209 426.524 48.9766 426.306 48.4639C426.094 47.9512 425.988 47.3838 425.988 46.7617C425.988 45.5996 426.412 44.6357 427.259 43.8701C428.114 43.1045 429.208 42.7217 430.541 42.7217C432.277 42.7217 433.552 43.0464 434.365 43.6958L433.555 45.9927C432.619 45.3228 431.631 44.9878 430.592 44.9878C429.977 44.9878 429.498 45.1519 429.156 45.48C428.821 45.8013 428.654 46.2217 428.654 46.7412C428.654 47.6025 429.607 48.498 431.515 49.4277C432.52 49.9199 433.244 50.3745 433.688 50.7915C434.133 51.2017 434.471 51.6836 434.704 52.2373C434.936 52.7842 435.052 53.396 435.052 54.0728C435.052 55.2896 434.57 56.291 433.606 57.0771C432.649 57.8633 431.364 58.2563 429.751 58.2563C428.35 58.2563 427.085 57.894 425.957 57.1694ZM440.087 45.3467V48.8638H445.05V51.1299H440.087V55.6313H446.896V58H437.421V42.978H447.008V45.3467H440.087ZM459.231 58.2051L451.94 48.6997V58.0103H449.377V42.978H450.659L457.754 52.0425V42.978H460.318V58.2051H459.231ZM462.687 57.1694L463.671 54.7803C464.724 55.5186 465.759 55.8877 466.778 55.8877C468.343 55.8877 469.126 55.3408 469.126 54.2471C469.126 53.7344 468.941 53.2456 468.572 52.7808C468.203 52.3159 467.441 51.7964 466.286 51.2222C465.137 50.6411 464.361 50.166 463.958 49.7969C463.562 49.4209 463.254 48.9766 463.035 48.4639C462.823 47.9512 462.717 47.3838 462.717 46.7617C462.717 45.5996 463.141 44.6357 463.989 43.8701C464.843 43.1045 465.937 42.7217 467.27 42.7217C469.006 42.7217 470.281 43.0464 471.095 43.6958L470.285 45.9927C469.348 45.3228 468.36 44.9878 467.321 44.9878C466.706 44.9878 466.228 45.1519 465.886 45.48C465.551 45.8013 465.383 46.2217 465.383 46.7412C465.383 47.6025 466.337 48.498 468.244 49.4277C469.249 49.9199 469.974 50.3745 470.418 50.7915C470.862 51.2017 471.201 51.6836 471.433 52.2373C471.666 52.7842 471.782 53.396 471.782 54.0728C471.782 55.2896 471.3 56.291 470.336 57.0771C469.379 57.8633 468.094 58.2563 466.48 58.2563C465.079 58.2563 463.814 57.894 462.687 57.1694ZM473.433 50.3608C473.433 48.2212 474.017 46.4131 475.186 44.9365C476.362 43.4531 477.931 42.7114 479.893 42.7114C482.053 42.7114 483.704 43.3813 484.845 44.7212C485.987 46.061 486.558 47.9409 486.558 50.3608C486.558 52.7808 485.959 54.7017 484.763 56.1235C483.574 57.5454 481.882 58.2563 479.688 58.2563C477.671 58.2563 476.123 57.5522 475.042 56.144C473.969 54.7358 473.433 52.8081 473.433 50.3608ZM476.201 50.3608C476.201 52.1177 476.499 53.478 477.093 54.4419C477.688 55.4058 478.553 55.8877 479.688 55.8877C481.021 55.8877 482.036 55.416 482.733 54.4727C483.437 53.5293 483.789 52.1587 483.789 50.3608C483.789 46.8403 482.49 45.0801 479.893 45.0801C478.703 45.0801 477.791 45.5586 477.155 46.5156C476.519 47.4658 476.201 48.7476 476.201 50.3608ZM497.386 58L493.376 51.7964C492.973 51.7896 492.409 51.7656 491.685 51.7246V58H488.916V42.978C489.066 42.978 489.644 42.9541 490.649 42.9062C491.654 42.8516 492.464 42.8242 493.079 42.8242C496.894 42.8242 498.801 44.3008 498.801 47.2539C498.801 48.1426 498.538 48.9526 498.011 49.6841C497.485 50.4155 496.822 50.9316 496.022 51.2324L500.462 58H497.386ZM491.685 45.2954V49.4688C492.177 49.5098 492.553 49.5303 492.812 49.5303C493.927 49.5303 494.74 49.373 495.253 49.0586C495.772 48.7441 496.032 48.1323 496.032 47.2231C496.032 46.4849 495.755 45.9688 495.202 45.6748C494.648 45.3809 493.776 45.2339 492.587 45.2339C492.3 45.2339 491.999 45.2544 491.685 45.2954Z" fill="white"/>
<path d="M616.988 164.029C618.203 160.992 621.145 159 624.416 159H927.184C932.843 159 936.714 164.716 934.612 169.971L901.012 253.971C899.797 257.008 896.855 259 893.584 259H590.816C585.157 259 581.286 253.284 583.388 248.029L616.988 164.029Z" fill="#162454"/>
<path d="M676.195 217V216.221L680.953 209.217C681.903 207.816 682.378 206.637 682.378 205.68C682.378 204.545 681.698 203.978 680.337 203.978C679.298 203.978 678.461 204.528 677.825 205.628L676.031 204.213C676.386 203.496 676.943 202.901 677.702 202.429C678.468 201.951 679.312 201.711 680.235 201.711C681.773 201.711 682.976 202.063 683.844 202.768C684.712 203.465 685.146 204.436 685.146 205.68C685.146 206.821 684.589 208.243 683.475 209.945L680.399 214.631H686.039V217H676.195ZM688.694 215.657C688.694 215.144 688.872 214.71 689.228 214.354C689.59 213.992 690.027 213.811 690.54 213.811C691.053 213.811 691.487 213.992 691.842 214.354C692.205 214.71 692.386 215.144 692.386 215.657C692.386 216.169 692.205 216.607 691.842 216.969C691.487 217.332 691.053 217.513 690.54 217.513C690.027 217.513 689.59 217.332 689.228 216.969C688.872 216.607 688.694 216.169 688.694 215.657ZM701.778 216.169L702.763 213.78C703.815 214.519 704.851 214.888 705.87 214.888C707.435 214.888 708.218 214.341 708.218 213.247C708.218 212.734 708.033 212.246 707.664 211.781C707.295 211.316 706.533 210.796 705.377 210.222C704.229 209.641 703.453 209.166 703.05 208.797C702.653 208.421 702.346 207.977 702.127 207.464C701.915 206.951 701.809 206.384 701.809 205.762C701.809 204.6 702.233 203.636 703.081 202.87C703.935 202.104 705.029 201.722 706.362 201.722C708.098 201.722 709.373 202.046 710.187 202.696L709.376 204.993C708.44 204.323 707.452 203.988 706.413 203.988C705.798 203.988 705.319 204.152 704.978 204.48C704.643 204.801 704.475 205.222 704.475 205.741C704.475 206.603 705.429 207.498 707.336 208.428C708.341 208.92 709.065 209.375 709.51 209.792C709.954 210.202 710.292 210.684 710.525 211.237C710.757 211.784 710.874 212.396 710.874 213.073C710.874 214.29 710.392 215.291 709.428 216.077C708.471 216.863 707.186 217.256 705.572 217.256C704.171 217.256 702.906 216.894 701.778 216.169ZM713.293 217V201.978H715.959V217H713.293ZM722.419 217H719.087V201.988C721.213 201.913 722.549 201.875 723.096 201.875C725.284 201.875 727.017 202.518 728.295 203.803C729.58 205.082 730.223 206.78 730.223 208.899C730.223 214.3 727.622 217 722.419 217ZM721.753 204.316V214.57C722.184 214.611 722.648 214.631 723.147 214.631C724.494 214.631 725.547 214.143 726.306 213.165C727.071 212.188 727.454 210.82 727.454 209.063C727.454 205.851 725.96 204.244 722.973 204.244C722.686 204.244 722.279 204.268 721.753 204.316ZM735.247 204.347V207.864H740.21V210.13H735.247V214.631H742.056V217H732.581V201.978H742.168V204.347H735.247ZM754.832 202.778L753.735 204.982C753.14 204.388 752.183 204.09 750.864 204.09C749.613 204.09 748.587 204.617 747.788 205.669C746.988 206.715 746.588 208.042 746.588 209.648C746.588 211.254 746.957 212.529 747.695 213.473C748.44 214.416 749.432 214.888 750.669 214.888C752.084 214.888 753.191 214.382 753.991 213.37L755.232 215.523C754.145 216.679 752.552 217.256 750.454 217.256C748.355 217.256 746.725 216.566 745.562 215.185C744.4 213.804 743.819 211.921 743.819 209.535C743.819 207.313 744.462 205.458 745.747 203.967C747.039 202.47 748.69 201.722 750.7 201.722C752.422 201.722 753.8 202.074 754.832 202.778ZM766.04 217V210.232H760.062V217H757.396V201.978H760.062V207.864H766.04V201.978H768.675V217H766.04ZM780.518 217L779.421 213.955H774.273L773.228 217H770.264L776.252 201.773H777.421L783.461 217H780.518ZM776.837 206.367L775.032 211.914H778.642L776.837 206.367ZM785.112 217V201.978H787.778V217H785.112ZM800.759 217.205L793.469 207.7V217.01H790.905V201.978H792.187L799.283 211.042V201.978H801.846V217.205H800.759Z" fill="white"/>
<defs>
<clipPath id="clip0">
<rect width="489" height="489" fill="white" transform="matrix(-1.19249e-08 -1 -1 1.19249e-08 670 527)"/>
</clipPath>
</defs>
</svg>
